<svg width="16" height="16" viewBox="0 0 16 16" fill="none" xmlns="http://www.w3.org/2000/svg">
<path d="M14.4937 7.44469V1.47294C14.4937 1.21406 14.2839 1.00419 14.025 1.00419H11.7323V0.46875C11.7323 0.209875 11.5224 0 11.2635 0C11.0047 0 10.7948 0.209875 10.7948 0.46875V1.00419H7.71562V0.46875C7.71562 0.209875 7.50575 0 7.24687 0C6.988 0 6.77812 0.209875 6.77812 0.46875V1.00419H3.69897V0.46875C3.69897 0.209875 3.48909 0 3.23022 0C2.97134 0 2.76147 0.209875 2.76147 0.46875V1.00419H0.46875C0.209875 1.00419 0 1.21406 0 1.47294V14.025C0 14.2839 0.209875 14.4938 0.46875 14.4938H7.44469C8.35103 15.4224 9.61547 16 11.0125 16C13.7626 16 16 13.7626 16 11.0125C16 9.61547 15.4224 8.35103 14.4937 7.44469ZM0.9375 1.94169H13.5562V4.01669H0.9375V1.94169ZM0.9375 13.5562V4.95419H13.5562V6.72412C12.811 6.28038 11.9411 6.025 11.0125 6.025C8.26241 6.025 6.025 8.26237 6.025 11.0125C6.025 11.9411 6.28038 12.811 6.72412 13.5562H0.9375ZM11.0125 15.0625C8.77931 15.0625 6.96247 13.2457 6.96247 11.0125C6.96247 8.77931 8.77928 6.9625 11.0125 6.9625C13.2457 6.9625 15.0625 8.77934 15.0625 11.0125C15.0625 13.2457 13.2457 15.0625 11.0125 15.0625Z" fill="black"/>
</svg>
