<svg width="18" height="18" viewBox="0 0 18 18" fill="none" xmlns="http://www.w3.org/2000/svg">
<path d="M17.9525 5.29207C17.9104 4.33565 17.7557 3.67813 17.5341 3.10837C17.3056 2.50359 16.954 1.96214 16.4933 1.51202C16.0431 1.0549 15.4981 0.699693 14.9003 0.474704C14.3273 0.253148 13.6732 0.0984845 12.7168 0.0563161C11.7532 0.0105764 11.4473 0 9.0035 0C6.55965 0 6.25376 0.0105764 5.29377 0.0527448C4.33736 0.0949133 3.67984 0.249714 3.11022 0.471132C2.5053 0.699693 1.96384 1.05133 1.51373 1.51202C1.05661 1.96214 0.70154 2.50717 0.476413 3.10494C0.254857 3.67813 0.100193 4.33208 0.0580251 5.28849C0.0122854 6.25205 0.00170898 6.55794 0.00170898 9.00179C0.00170898 11.4456 0.0122854 11.7515 0.0544538 12.7115C0.0966222 13.6679 0.251423 14.3254 0.472979 14.8952C0.70154 15.5 1.05661 16.0414 1.51373 16.4916C1.96384 16.9487 2.50887 17.3039 3.10665 17.5289C3.67984 17.7504 4.33379 17.9051 5.29034 17.9473C6.25019 17.9896 6.55622 18 9.00006 18C11.4439 18 11.7498 17.9896 12.7098 17.9473C13.6662 17.9051 14.3237 17.7504 14.8933 17.5289C16.103 17.0612 17.0594 16.1048 17.5271 14.8952C17.7486 14.322 17.9034 13.6679 17.9455 12.7115C17.9877 11.7515 17.9983 11.4456 17.9983 9.00179C17.9983 6.55794 17.9947 6.25205 17.9525 5.29207ZM16.3316 12.6412C16.2929 13.5203 16.1452 13.995 16.0221 14.3114C15.7197 15.0956 15.0973 15.718 14.3131 16.0204C13.9967 16.1435 13.5185 16.2912 12.6429 16.3297C11.6935 16.3721 11.4087 16.3825 9.00707 16.3825C6.60539 16.3825 6.31708 16.3721 5.37111 16.3297C4.49203 16.2912 4.01732 16.1435 3.70085 16.0204C3.31062 15.8762 2.95542 15.6476 2.66711 15.3487C2.36822 15.0569 2.13966 14.7052 1.99544 14.315C1.87237 13.9985 1.72471 13.5203 1.68611 12.6448C1.6438 11.6953 1.63337 11.4105 1.63337 9.00879C1.63337 6.60712 1.6438 6.3188 1.68611 5.37297C1.72471 4.49389 1.87237 4.01918 1.99544 3.70272C2.13966 3.31235 2.36822 2.95728 2.67068 2.66883C2.96243 2.36995 3.31406 2.14139 3.70442 1.9973C4.02089 1.87423 4.49917 1.72657 5.37468 1.68783C6.32408 1.64567 6.60896 1.63509 9.0105 1.63509C11.4157 1.63509 11.7005 1.64567 12.6465 1.68783C13.5255 1.72657 14.0002 1.87423 14.3167 1.9973C14.7069 2.14139 15.0621 2.36995 15.3505 2.66883C15.6493 2.96072 15.8779 3.31235 16.0221 3.70272C16.1452 4.01918 16.2929 4.49732 16.3316 5.37297C16.3738 6.32238 16.3843 6.60712 16.3843 9.00879C16.3843 11.4105 16.3738 11.6918 16.3316 12.6412Z" fill="black"/>
<path d="M9.00351 4.37783C6.45074 4.37783 4.37954 6.44889 4.37954 9.0018C4.37954 11.5547 6.45074 13.6258 9.00351 13.6258C11.5564 13.6258 13.6275 11.5547 13.6275 9.0018C13.6275 6.44889 11.5564 4.37783 9.00351 4.37783ZM9.00351 12.0012C7.3474 12.0012 6.00406 10.658 6.00406 9.0018C6.00406 7.34555 7.3474 6.00235 9.00351 6.00235C10.6597 6.00235 12.003 7.34555 12.003 9.0018C12.003 10.658 10.6597 12.0012 9.00351 12.0012Z" fill="black"/>
<path d="M14.8899 4.19491C14.8899 4.79104 14.4065 5.2744 13.8102 5.2744C13.2141 5.2744 12.7308 4.79104 12.7308 4.19491C12.7308 3.59865 13.2141 3.11543 13.8102 3.11543C14.4065 3.11543 14.8899 3.59865 14.8899 4.19491Z" fill="black"/>
</svg>
