<svg width="20" height="20" viewBox="0 0 20 20" fill="none" xmlns="http://www.w3.org/2000/svg">
<g clip-path="url(#clip0_14_219)">
<path d="M8.80758 0C3.95121 0 0 3.95121 0 8.80758C0 13.6642 3.95121 17.6152 8.80758 17.6152C13.6642 17.6152 17.6152 13.6642 17.6152 8.80758C17.6152 3.95121 13.6642 0 8.80758 0ZM8.80758 15.9892C4.84769 15.9892 1.62602 12.7675 1.62602 8.80762C1.62602 4.84773 4.84769 1.62602 8.80758 1.62602C12.7675 1.62602 15.9891 4.84769 15.9891 8.80758C15.9891 12.7675 12.7675 15.9892 8.80758 15.9892Z" fill="#333333"/>
<path d="M19.7618 18.6123L15.1005 13.951C14.7829 13.6334 14.2685 13.6334 13.9509 13.951C13.6332 14.2683 13.6332 14.7833 13.9509 15.1006L18.6122 19.7619C18.7709 19.9207 18.9788 20.0001 19.187 20.0001C19.3948 20.0001 19.6029 19.9207 19.7618 19.7619C20.0794 19.4445 20.0794 18.9296 19.7618 18.6123Z" fill="#333333"/>
</g>
<defs>
<clipPath id="clip0_14_219">
<rect width="20" height="20" fill="white"/>
</clipPath>
</defs>
</svg>
