<svg width="12" height="14" viewBox="0 0 12 14" fill="none" xmlns="http://www.w3.org/2000/svg">
<path d="M10.187 1.65547C9.06864 0.587922 7.58166 0 6.00004 0C4.41842 0 2.93144 0.587922 1.81308 1.65547C0.694667 2.72305 0.0787487 4.14241 0.0787487 5.65211C0.0787487 8.70625 3.10406 11.2465 4.72938 12.6113C4.95521 12.8009 5.15025 12.9647 5.30559 13.1032C5.50031 13.2769 5.75012 13.3636 6.00001 13.3636C6.24988 13.3636 6.49975 13.2768 6.69444 13.1032C6.84983 12.9647 7.04485 12.8009 7.27068 12.6113C8.89599 11.2465 11.9213 8.70628 11.9213 5.65214C11.9213 4.14241 11.3054 2.72305 10.187 1.65547ZM6.00004 7.92936C4.56118 7.92936 3.39063 6.81201 3.39063 5.43856C3.39063 4.0651 4.56118 2.94775 6.00004 2.94775C7.4389 2.94775 8.60946 4.0651 8.60946 5.43856C8.60946 6.81201 7.43887 7.92936 6.00004 7.92936Z" fill="#A6D914"/>
</svg>
