<svg width="14" height="15" viewBox="0 0 14 15" fill="none" xmlns="http://www.w3.org/2000/svg">
<path d="M5.7972 8.67727C4.46093 7.41523 4.1592 6.15319 4.09113 5.64755C4.07211 5.50774 4.12306 5.36754 4.22896 5.26821L5.31034 4.24737C5.46941 4.09722 5.49764 3.86323 5.37841 3.68314L3.65665 1.15815C3.52474 0.958737 3.25389 0.886765 3.03124 0.991963L0.267202 2.2214C0.0871477 2.30514 -0.0187581 2.48581 0.00168516 2.67438C0.146513 3.9738 0.74634 7.16811 4.07013 10.3075C7.39393 13.4468 10.7757 14.0131 12.1522 14.1499C12.3519 14.1692 12.5432 14.0692 12.6319 13.8991L13.9336 11.2887C14.0446 11.0788 13.9689 10.8237 13.7586 10.6989L11.0851 9.07325C10.8945 8.96052 10.6468 8.98699 10.4877 9.13708L9.40679 10.1584C9.30162 10.2584 9.15317 10.3065 9.00513 10.2886C8.46975 10.2243 7.13348 9.9393 5.7972 8.67727Z" fill="#A6D914"/>
<path d="M11.1034 7.99707C10.8368 7.99707 10.6207 7.79294 10.6207 7.54113C10.6184 5.65346 8.9987 4.12373 6.99999 4.12159C6.73337 4.12159 6.51723 3.91746 6.51723 3.66566C6.51723 3.41385 6.73337 3.20972 6.99999 3.20972C9.53172 3.21236 11.5834 5.15005 11.5862 7.54113C11.5862 7.79294 11.3701 7.99707 11.1034 7.99707Z" fill="#A6D914"/>
<path d="M13.5172 7.9971C13.2506 7.9971 13.0345 7.79297 13.0345 7.54116C13.0307 4.39502 10.3312 1.84545 6.99999 1.84193C6.73337 1.84193 6.51723 1.6378 6.51723 1.38599C6.51723 1.13418 6.73337 0.930054 6.99999 0.930054C10.8642 0.934074 13.9957 3.89162 14 7.54116C14 7.66209 13.9491 7.77806 13.8586 7.86356C13.7681 7.94907 13.6453 7.9971 13.5172 7.9971Z" fill="#A6D914"/>
</svg>
