<svg width="14" height="14" viewBox="0 0 14 14" fill="none" xmlns="http://www.w3.org/2000/svg">
<g clip-path="url(#clip0_2_2871)">
<path d="M13.396 0.930713C11.4663 1.75626 9.75807 3.01472 8.38251 4.58369H9.44639C10.6794 3.32036 12.1584 2.3093 13.793 1.61004C14.2582 1.41108 13.857 0.733573 13.396 0.930713Z" fill="white"/>
<path d="M8.04979 4.97705H0C0 8.82212 3.11707 11.9392 6.96215 11.9392C10.8072 11.9392 13.9243 8.82209 13.9243 4.97705H9.07849H8.04979Z" fill="white"/>
<path d="M13.9243 12.7258H0V13.9059H13.9243V12.7258Z" fill="white"/>
<path d="M4.74884 3.05188C4.75621 3.03474 4.76055 3.0186 4.76614 3.00263C4.77218 2.98675 4.78305 2.97194 4.79076 2.95748C4.80083 2.94324 4.80296 2.929 4.81516 2.91635C4.82616 2.90358 4.83504 2.89133 4.84378 2.87961C4.85093 2.86781 4.86187 2.85649 4.87407 2.84586C4.88556 2.83525 4.89523 2.8247 4.90397 2.81423C4.92726 2.79347 4.95432 2.77333 4.97298 2.75194C5.00413 2.73092 5.03065 2.70851 5.05524 2.68571C5.0842 2.67022 5.10899 2.65337 5.13047 2.63332C5.13265 2.63017 5.14839 2.61939 5.1613 2.6102L5.20056 2.58226C5.22699 2.56385 5.25269 2.54442 5.27845 2.52499L5.33612 2.48204L5.43664 2.40441C5.56792 2.29293 5.69043 2.15746 5.78789 2.00054C5.88575 1.84422 5.95508 1.66555 5.98549 1.48838C6.0168 1.31115 6.00979 1.13815 5.9778 0.987758C5.94648 0.836627 5.8889 0.707934 5.82658 0.601252C5.69868 0.387831 5.54401 0.261577 5.42791 0.188167C5.37061 0.15081 5.31799 0.129167 5.28503 0.113765C5.25074 0.0990432 5.23051 0.0939941 5.23051 0.0939941C5.23051 0.0939941 5.22989 0.113765 5.22878 0.150867C5.22918 0.186125 5.2239 0.239991 5.22138 0.301827C5.21406 0.426436 5.20061 0.595408 5.16473 0.760069C5.14791 0.84213 5.1221 0.922915 5.09198 0.99448C5.06145 1.06656 5.0252 1.12902 4.98538 1.18399C4.94533 1.23913 4.90204 1.28806 4.85243 1.3396C4.80265 1.39083 4.74495 1.44393 4.67872 1.49992L4.62639 1.54199L4.61339 1.55271L4.61016 1.55538L4.58066 1.57844L4.57839 1.58048L4.56934 1.58859L4.53318 1.62079C4.50901 1.64217 4.48496 1.66356 4.46175 1.68583L4.42666 1.71879C4.41486 1.72997 4.40488 1.73839 4.38639 1.75969C4.32029 1.83214 4.25815 1.90719 4.20119 1.98247C4.15297 2.06107 4.10931 2.14021 4.07037 2.21839C4.05306 2.26182 4.03803 2.30604 4.02396 2.34929C4.0104 2.39335 3.99477 2.43362 3.98754 2.47941C3.97999 2.52505 3.97353 2.57003 3.96913 2.61425C3.967 2.63612 3.9649 2.65794 3.96278 2.67955C3.96159 2.70125 3.96388 2.72375 3.96468 2.74539C3.96868 2.83247 3.97608 2.91462 4.00062 2.99029C4.01196 3.02796 4.0211 3.06512 4.035 3.09902C4.05003 3.13263 4.0637 3.16525 4.08024 3.1958C4.10988 3.25835 4.14988 3.30853 4.18485 3.35638C4.22275 3.40239 4.26172 3.44088 4.29868 3.47557C4.33904 3.50748 4.37427 3.53692 4.41087 3.5599C4.44831 3.58208 4.48064 3.60222 4.51307 3.61686C4.57592 3.64769 4.63129 3.66193 4.66638 3.67225C4.70289 3.68153 4.72357 3.68309 4.72357 3.68309C4.72357 3.68309 4.72115 3.66343 4.71656 3.62661C4.71111 3.59175 4.70924 3.5378 4.70484 3.47738C4.70405 3.44766 4.70317 3.41461 4.70218 3.37873C4.70334 3.34529 4.70459 3.30909 4.70592 3.27049C4.71375 3.19597 4.72359 3.12012 4.74884 3.05188Z" fill="white"/>
<path d="M7.00389 3.05188C7.0113 3.03474 7.01558 3.0186 7.02117 3.00263C7.02732 2.98675 7.03807 2.97194 7.04585 2.95748C7.05589 2.94324 7.05799 2.929 7.07018 2.91635C7.08122 2.90358 7.09004 2.89133 7.0988 2.87961C7.10598 2.86781 7.11693 2.85649 7.12904 2.84586C7.14056 2.83525 7.15026 2.8247 7.15899 2.81423C7.18228 2.79347 7.20931 2.77333 7.22801 2.75194C7.25915 2.73092 7.28562 2.70851 7.31027 2.68571C7.33923 2.67022 7.36402 2.65337 7.38549 2.63332C7.38765 2.63017 7.40342 2.61939 7.41629 2.6102L7.45555 2.58226C7.48202 2.56385 7.50774 2.54442 7.53342 2.52499L7.59108 2.48204L7.69164 2.40441C7.82297 2.29293 7.94542 2.15746 8.04288 2.00054C8.14077 1.84422 8.21009 1.66555 8.24053 1.48838C8.27185 1.31115 8.26481 1.13815 8.23282 0.987758C8.2015 0.836627 8.14395 0.707934 8.08163 0.601252C7.9537 0.387831 7.79908 0.261577 7.68301 0.188167C7.62574 0.15081 7.57315 0.129167 7.54014 0.113765C7.50584 0.0990432 7.48562 0.0939941 7.48562 0.0939941C7.48562 0.0939941 7.48502 0.113765 7.48389 0.150867C7.48426 0.186125 7.47901 0.239991 7.47646 0.301827C7.46914 0.426436 7.45575 0.595408 7.41984 0.760069C7.40299 0.84213 7.37718 0.922915 7.34708 0.99448C7.31659 1.06656 7.28031 1.12902 7.24049 1.18399C7.20044 1.23913 7.15715 1.28806 7.10754 1.3396C7.05767 1.39083 7.00004 1.44393 6.9338 1.49992L6.8815 1.54199L6.86851 1.55271L6.86527 1.55538L6.83577 1.57844L6.8335 1.58048L6.82446 1.58859L6.78826 1.62079C6.76409 1.64217 6.74004 1.66356 6.71684 1.68583L6.68175 1.71879C6.66995 1.72997 6.65997 1.73839 6.6415 1.75969C6.57541 1.83214 6.51326 1.90719 6.4563 1.98247C6.40808 2.06107 6.36443 2.14021 6.32548 2.21839C6.30818 2.26182 6.29315 2.30604 6.27908 2.34929C6.26555 2.39335 6.24989 2.43362 6.24266 2.47941C6.23511 2.52505 6.22864 2.57003 6.22425 2.61425C6.22212 2.63612 6.22002 2.65794 6.21787 2.67955C6.21667 2.70125 6.21897 2.72375 6.21974 2.74539C6.22377 2.83247 6.23114 2.91462 6.2557 2.99029C6.26702 3.02796 6.27616 3.06512 6.29008 3.09902C6.30512 3.13263 6.31879 3.16525 6.33533 3.1958C6.36505 3.25835 6.40496 3.30853 6.43994 3.35638C6.47786 3.40239 6.51681 3.44088 6.55377 3.47557C6.5941 3.50748 6.62936 3.53692 6.66595 3.5599C6.70339 3.58208 6.73573 3.60222 6.76815 3.61686C6.83101 3.64769 6.88638 3.66193 6.92146 3.67225C6.95797 3.68153 6.97868 3.68309 6.97868 3.68309C6.97868 3.68309 6.97624 3.66343 6.97164 3.62661C6.96622 3.59175 6.96432 3.5378 6.95993 3.47738C6.95913 3.44766 6.95825 3.41461 6.95723 3.37873C6.95842 3.34529 6.95967 3.30909 6.96101 3.27049C6.96878 3.19597 6.97853 3.12012 7.00389 3.05188Z" fill="white"/>
</g>
<defs>
<clipPath id="clip0_2_2871">
<rect width="14" height="14" fill="white"/>
</clipPath>
</defs>
</svg>
