<svg width="10" height="10" viewBox="0 0 10 10" fill="none" xmlns="http://www.w3.org/2000/svg">
<g clip-path="url(#clip0_70_814)">
<path d="M5 0C2.24289 0 0 2.24289 0 5C0 7.75711 2.24289 10 5 10C7.75711 10 10 7.75711 10 5C10 2.24289 7.75711 0 5 0ZM5 7.91664C4.76997 7.91664 4.58336 7.73003 4.58336 7.5C4.58336 7.26997 4.76997 7.08336 5 7.08336C5.23003 7.08336 5.41664 7.26997 5.41664 7.5C5.41664 7.73003 5.23003 7.91664 5 7.91664ZM5.65956 5.26749C5.51208 5.33539 5.41664 5.48416 5.41664 5.64629V5.83336C5.41664 6.06331 5.23041 6.25 5 6.25C4.76959 6.25 4.58336 6.06331 4.58336 5.83336V5.64629C4.58336 5.15999 4.86916 4.7142 5.31044 4.51042C5.73502 4.31503 6.04164 3.79623 6.04164 3.54164C6.04164 2.96753 5.57457 2.5 5 2.5C4.42543 2.5 3.95836 2.96753 3.95836 3.54164C3.95836 3.77167 3.77205 3.95836 3.54164 3.95836C3.31123 3.95836 3.125 3.77167 3.125 3.54164C3.125 2.50793 3.96622 1.66664 5 1.66664C6.03378 1.66664 6.875 2.50793 6.875 3.54164C6.875 4.10461 6.38664 4.9321 5.65956 5.26749Z" fill="#333333" fill-opacity="0.3"/>
</g>
<defs>
<clipPath id="clip0_70_814">
<rect width="10" height="10" fill="white"/>
</clipPath>
</defs>
</svg>
