<svg width="15" height="15" viewBox="0 0 15 15" fill="none" xmlns="http://www.w3.org/2000/svg">
<g clip-path="url(#clip0_155_844)">
<path d="M14.375 11.875H12.7106C12.44 10.9744 11.6125 10.3125 10.625 10.3125C9.63753 10.3125 8.81063 10.9744 8.53939 11.875H0.62499C0.27999 11.875 0 12.155 0 12.5C0 12.845 0.27999 13.125 0.62499 13.125H8.53936C8.80998 14.0256 9.6375 14.6875 10.625 14.6875C11.6125 14.6875 12.4394 14.0256 12.7106 13.125H14.375C14.7206 13.125 15 12.845 15 12.5C15 12.155 14.7206 11.875 14.375 11.875ZM10.625 13.4375C10.1081 13.4375 9.68751 13.0169 9.68751 12.5C9.68751 11.9831 10.1081 11.5625 10.625 11.5625C11.1419 11.5625 11.5625 11.9831 11.5625 12.5C11.5625 13.0169 11.1419 13.4375 10.625 13.4375Z" fill="black"/>
<path d="M14.375 1.87499H12.7106C12.4394 0.974375 11.6125 0.3125 10.625 0.3125C9.63753 0.3125 8.81063 0.974375 8.53936 1.87499H0.62499C0.27999 1.87499 0 2.15498 0 2.49998C0 2.84498 0.27999 3.12497 0.62499 3.12497H8.53936C8.81063 4.02562 9.6375 4.68749 10.625 4.68749C11.6125 4.68749 12.4394 4.02562 12.7106 3.125H14.375C14.7206 3.125 15 2.84501 15 2.50001C15 2.15501 14.7206 1.87499 14.375 1.87499ZM10.625 3.43748C10.1081 3.43748 9.68751 3.01687 9.68751 2.49998C9.68751 1.9831 10.1081 1.56248 10.625 1.56248C11.1419 1.56248 11.5625 1.9831 11.5625 2.49998C11.5625 3.01687 11.1419 3.43748 10.625 3.43748Z" fill="black"/>
<path d="M14.375 6.87505H6.46063C6.18937 5.97444 5.3625 5.31256 4.37502 5.31256C3.38754 5.31256 2.56063 5.97444 2.2894 6.87505H0.62499C0.27999 6.87505 0 7.15504 0 7.50005C0 7.84505 0.27999 8.12504 0.62499 8.12504H2.28937C2.56063 9.02565 3.38751 9.68753 4.37499 9.68753C5.36247 9.68753 6.18937 9.02565 6.46061 8.12504H14.375C14.7206 8.12504 15 7.84505 15 7.50005C15 7.15504 14.7206 6.87505 14.375 6.87505ZM4.37499 8.43755C3.85811 8.43755 3.43749 8.01693 3.43749 7.50005C3.43749 6.98316 3.85811 6.56254 4.37499 6.56254C4.89187 6.56254 5.31249 6.98316 5.31249 7.50005C5.31249 8.01693 4.89187 8.43755 4.37499 8.43755Z" fill="black"/>
</g>
<defs>
<clipPath id="clip0_155_844">
<rect width="15" height="15" fill="white"/>
</clipPath>
</defs>
</svg>
