<svg width="8" height="12" viewBox="0 0 8 12" fill="none" xmlns="http://www.w3.org/2000/svg">
<path d="M6.95155 11.8082L7.34736 11.4151C7.47097 11.2914 7.53906 11.1268 7.53906 10.9509C7.53906 10.7751 7.47097 10.6103 7.34736 10.4866L2.86322 6.00268L7.35233 1.51357C7.47594 1.39006 7.54395 1.22528 7.54395 1.04947C7.54395 0.873666 7.47594 0.708786 7.35233 0.585175L6.95896 0.192001C6.70316 -0.0640007 6.28647 -0.0640008 6.03066 0.192001L0.66662 5.53682C0.543106 5.66034 0.456081 5.82492 0.456081 6.00229L0.456081 6.00434C0.456081 6.18024 0.543204 6.34483 0.666619 6.46834L6.01613 11.8082C6.13964 11.9319 6.3092 11.9998 6.48501 12C6.66091 12 6.82813 11.9319 6.95155 11.8082Z" fill="black"/>
</svg>
