<svg width="16" height="14" viewBox="0 0 16 14" fill="none" xmlns="http://www.w3.org/2000/svg">
<path d="M15.7529 0.602172C15.5575 0.363159 15.2648 0.231567 14.9286 0.231567C14.7458 0.231567 14.5522 0.270019 14.3533 0.346069L0.809594 5.5161C0.0908452 5.79039 -0.00595631 6.20201 0.000269252 6.42296C0.00649482 6.64391 0.12649 7.04942 0.859642 7.2827C0.864037 7.28404 0.868431 7.28538 0.872826 7.2866L3.68215 8.09056L5.20143 12.435C5.40858 13.0273 5.87355 13.3952 6.41505 13.3952C6.75648 13.3952 7.09229 13.2522 7.38624 12.9817L9.12391 11.3817L11.6443 13.4111C11.6445 13.4113 11.6449 13.4115 11.6451 13.4117L11.6691 13.431C11.6713 13.4327 11.6736 13.4345 11.6758 13.4362C11.9559 13.6535 12.2617 13.7683 12.5604 13.7684H12.5605C13.1442 13.7684 13.6089 13.3364 13.7443 12.6679L15.9634 1.71045C16.0525 1.27063 15.9778 0.877074 15.7529 0.602172ZM4.62196 7.93785L10.042 5.16893L6.66712 8.75498C6.61183 8.8137 6.57264 8.8856 6.55336 8.96385L5.9026 11.5998L4.62196 7.93785ZM6.75111 12.292C6.72865 12.3126 6.70606 12.331 6.68348 12.348L7.28724 9.90269L8.3855 10.7871L6.75111 12.292ZM15.0445 1.52429L12.8254 12.4819C12.8041 12.5868 12.7358 12.8308 12.5604 12.8308C12.4738 12.8308 12.3649 12.7835 12.2534 12.6977L9.39746 10.3982C9.3971 10.3978 9.39661 10.3974 9.39612 10.3972L7.69678 9.02879L12.5773 3.84289C12.7335 3.67687 12.7477 3.4226 12.6108 3.24023C12.4739 3.05785 12.2257 3.00048 12.0227 3.10424L3.99562 7.20506L1.14809 6.39037L14.6876 1.22192C14.802 1.17822 14.8818 1.16907 14.9286 1.16907C14.9573 1.16907 15.0083 1.17248 15.0272 1.1958C15.0521 1.22619 15.0839 1.32983 15.0445 1.52429Z" fill="white"/>
</svg>
