<svg width="9" height="12" viewBox="0 0 9 12" fill="none" xmlns="http://www.w3.org/2000/svg">
<path d="M7.61499 4.49995H5.39942C5.20569 4.49995 5.10865 4.37068 5.07605 4.31501C5.04346 4.25971 4.97754 4.11213 5.07129 3.94294L5.85242 2.53632C6.0238 2.22834 6.04138 1.86616 5.90112 1.54279C5.76086 1.21906 5.48401 0.984319 5.1416 0.898992L4.59082 0.761297C4.45678 0.727605 4.31469 0.770452 4.22131 0.87409L1.23083 4.19636C0.920654 4.54169 0.75 4.98701 0.75 5.45063V9.37494C0.75 10.4088 1.59118 11.2499 2.625 11.2499L6.35559 11.2496C7.19788 11.2496 7.94165 10.6823 8.16394 9.87042L8.96447 6.19659C8.98791 6.09442 9 5.98968 9 5.88495C9 5.1214 8.37853 4.49994 7.61498 4.49994L7.61499 4.49995Z" fill="#87C04F"/>
</svg>
