<svg width="20" height="12" viewBox="0 0 20 12" fill="none" xmlns="http://www.w3.org/2000/svg">
<path d="M18.5873 1.37831C18.7131 0.960608 18.5873 0.654297 17.9926 0.654297H16.0227C15.5215 0.654297 15.2924 0.919288 15.1667 1.21033C15.1667 1.21033 14.1651 3.65273 12.7458 5.23639C12.2877 5.6972 12.0784 5.84272 11.8287 5.84272C11.7038 5.84272 11.5224 5.6972 11.5224 5.27951V1.37831C11.5224 0.877069 11.3778 0.654297 10.9601 0.654297H7.8646C7.55201 0.654297 7.36337 0.886052 7.36337 1.10703C7.36337 1.58132 8.073 1.6909 8.14576 3.02754V5.92716C8.14576 6.56224 8.03168 6.67812 7.78017 6.67812C7.11275 6.67812 5.48867 4.22673 4.52482 1.42052C4.33709 0.875272 4.14755 0.655196 3.64452 0.655196H1.6755C1.11228 0.655196 1 0.920186 1 1.21123C1 1.73402 1.66742 4.32105 4.10892 7.74257C5.7366 10.079 8.02809 11.3455 10.1157 11.3455C11.367 11.3455 11.5215 11.0644 11.5215 10.5793V8.81331C11.5215 8.25099 11.6409 8.13781 12.0371 8.13781C12.3281 8.13781 12.8294 8.28513 13.998 9.41067C15.3328 10.7455 15.5538 11.3446 16.3039 11.3446H18.2729C18.8352 11.3446 19.1164 11.0635 18.9547 10.5084C18.7777 9.95592 18.14 9.15196 17.2938 8.20069C16.8339 7.65813 16.1467 7.07426 15.9374 6.78232C15.6454 6.40594 15.7299 6.23976 15.9374 5.9056C15.9383 5.9065 18.3376 2.5272 18.5873 1.37831V1.37831Z" stroke="black"/>
</svg>
