<svg width="18" height="18" viewBox="0 0 18 18" fill="none" xmlns="http://www.w3.org/2000/svg">
<path fill-rule="evenodd" clip-rule="evenodd" d="M15.3468 2.61584C13.6628 0.929883 11.4233 0.000988768 9.03736 0C4.12098 0 0.119763 4.00111 0.117786 8.91881C0.117126 10.4908 0.527795 12.0254 1.30837 13.3781L0.0429688 18L4.77137 16.7596C6.07424 17.4703 7.54103 17.8449 9.03374 17.8453H9.03747C13.9533 17.8453 17.955 13.8439 17.9568 8.92595C17.9578 6.54258 17.0309 4.3017 15.3468 2.61584ZM9.03736 16.339H9.03429C7.70406 16.3384 6.39944 15.9809 5.26103 15.3056L4.99044 15.1449L2.18453 15.881L2.93347 13.1453L2.75714 12.8648C2.01501 11.6844 1.62313 10.3201 1.62379 8.91936C1.62533 4.8319 4.95111 1.50645 9.04033 1.50645C11.0205 1.5071 12.8819 2.27922 14.2816 3.68053C15.6812 5.08184 16.4516 6.94446 16.4509 8.9254C16.4492 13.0132 13.1236 16.339 9.03736 16.339ZM13.1038 10.7866C12.881 10.675 11.7853 10.136 11.5809 10.0615C11.3768 9.98712 11.228 9.9501 11.0796 10.1731C10.931 10.3961 10.5039 10.8982 10.3739 11.0469C10.2438 11.1956 10.1139 11.2143 9.891 11.1027C9.66809 10.9912 8.95002 10.7557 8.09869 9.99646C7.43622 9.40551 6.98896 8.67568 6.85889 8.45266C6.72903 8.22942 6.85779 8.12043 6.95666 7.99783C7.19792 7.69823 7.43951 7.38413 7.51378 7.23549C7.58816 7.08673 7.55091 6.95654 7.4951 6.84503C7.43951 6.73352 6.9938 5.63654 6.80813 5.19016C6.62707 4.75576 6.44349 4.81443 6.3066 4.80762C6.17674 4.80114 6.0281 4.79982 5.87946 4.79982C5.73092 4.79982 5.48944 4.85552 5.28509 5.07876C5.08086 5.30189 4.50518 5.84099 4.50518 6.93798C4.50518 8.03496 5.30377 9.0947 5.41517 9.24346C5.52657 9.39221 6.98677 11.6433 9.22237 12.6086C9.75411 12.8384 10.1692 12.9754 10.4929 13.0781C11.0269 13.2478 11.5126 13.2238 11.8967 13.1665C12.3249 13.1024 13.2151 12.6272 13.401 12.1067C13.5867 11.5861 13.5867 11.1399 13.5309 11.0469C13.4753 10.9539 13.3266 10.8982 13.1038 10.7866Z" fill="black"/>
</svg>
