<svg width="25" height="25" viewBox="0 0 25 25" fill="none" xmlns="http://www.w3.org/2000/svg">
<g opacity="0.5" clip-path="url(#clip0_1_2945)">
<path d="M12.0605 9.6218C11.7261 9.59222 11.3971 9.51855 11.082 9.40271L10.7925 10.1283C11.1742 10.2712 11.5734 10.3623 11.9793 10.399C12.0784 10.4073 12.1747 10.4114 12.2685 10.4114C13.0434 10.4114 13.6374 10.131 13.997 9.59168L13.347 9.15833C13.1098 9.51384 12.6771 9.66975 12.0605 9.6218Z" fill="#333333"/>
<path d="M12.5 8.98438H13.1785V8.20312H12.8906V7.03125H12.1094V8.59375C12.1094 8.69735 12.1505 8.79671 12.2238 8.86996C12.297 8.94322 12.3964 8.98438 12.5 8.98438Z" fill="#333333"/>
<path d="M11.4425 6.91685L11.9949 6.3644L11.6043 5.97378C11.5311 5.90054 11.4317 5.85938 11.3281 5.85938H10.1562V6.64063H11.1664L11.4425 6.91685Z" fill="#333333"/>
<path d="M13.3955 5.97378L13.0049 6.3644L13.5573 6.91685L13.8335 6.64063H14.8436V5.85938H13.6717C13.6204 5.85937 13.5696 5.86948 13.5222 5.88911C13.4748 5.90873 13.4318 5.93751 13.3955 5.97378Z" fill="#333333"/>
<path d="M10.561 7.02869L10.5583 7.80994L11.3268 7.81251L11.3294 7.03126L10.561 7.02869Z" fill="#333333"/>
<path d="M13.686 7.02857L13.6833 7.80981L14.4518 7.81239L14.4544 7.03114L13.686 7.02857Z" fill="#333333"/>
<path d="M10.5469 18.75H9.76562V19.5312H10.5469V18.75Z" fill="#333333"/>
<path d="M10.5469 20.7031H9.76562V21.4844H10.5469V20.7031Z" fill="#333333"/>
<path d="M22.542 13.005C22.4694 12.9325 22.3712 12.8914 22.2686 12.8906C22.166 12.8899 22.0672 12.9295 21.9936 13.001L19.2913 15.625H16.4064V14.0625C16.4064 13.9589 16.3652 13.8595 16.292 13.7863C16.2187 13.713 16.1193 13.6719 16.0157 13.6719H15.2345V11.4899L15.9013 10.8231C15.9376 10.7868 15.9664 10.7438 15.986 10.6964C16.0056 10.649 16.0157 10.5982 16.0157 10.5469V8.87412L16.9374 8.56289C17.0153 8.53657 17.0829 8.48633 17.1306 8.41932C17.1783 8.3523 17.2037 8.27195 17.203 8.1897L17.1876 6.24692C17.1871 6.1853 17.1721 6.12466 17.1437 6.06997C17.1152 6.01528 17.0743 5.96808 17.0242 5.93224C16.974 5.8964 16.9161 5.87294 16.8552 5.86376C16.7942 5.85459 16.732 5.85996 16.6735 5.87944L16.0157 6.09863V0.78125C16.0157 0.694134 15.9866 0.609519 15.933 0.540855C15.8794 0.472192 15.8044 0.423421 15.7198 0.402295L14.1573 0.01167C14.1264 0.00391049 14.0946 -8.91162e-06 14.0626 3.74035e-08H11.7189C11.6974 -9.36635e-06 11.6759 0.00175442 11.6547 0.00527348L9.31091 0.395898C9.21969 0.411099 9.13682 0.458169 9.07705 0.528732C9.01728 0.599295 8.98448 0.688774 8.98449 0.78125V6.09351L8.34221 5.87939C8.28374 5.85991 8.22149 5.85454 8.16054 5.86371C8.0996 5.87289 8.04169 5.89636 7.99156 5.93219C7.94142 5.96803 7.90047 6.01523 7.87206 6.06992C7.84365 6.12461 7.82859 6.18525 7.82809 6.24687L7.81262 8.18975C7.81196 8.272 7.83729 8.35235 7.88499 8.41936C7.93268 8.48638 8.00031 8.53662 8.07824 8.56294L8.98449 8.8689V10.5469C8.98449 10.6382 9.01653 10.7267 9.07502 10.7969L9.76574 11.626V13.6719H8.59387C8.49027 13.6719 8.39091 13.713 8.31765 13.7863C8.2444 13.8595 8.20324 13.9589 8.20324 14.0625V15.625H5.35978L3.99958 11.5443C4.61025 11.2192 5.07512 10.6749 5.30063 10.0209C5.52615 9.36688 5.49557 8.65172 5.21505 8.01935C4.93452 7.38698 4.42488 6.88434 3.78869 6.61259C3.1525 6.34083 2.43699 6.32014 1.78616 6.55468C1.13533 6.78921 0.597496 7.26156 0.280898 7.87667C-0.0356993 8.49177 -0.107557 9.20397 0.0797884 9.86991C0.267133 10.5359 0.699773 11.1061 1.29064 11.466C1.8815 11.8258 2.58672 11.9484 3.26437 11.8092L4.53625 15.625H4.29699C4.22445 15.625 4.15335 15.6452 4.09164 15.6833C4.02994 15.7215 3.98007 15.776 3.94763 15.8409L1.9945 19.7472C1.96737 19.8014 1.95324 19.8612 1.95324 19.9219V25H2.73449V20.0141L4.5384 16.4062H4.7967L5.75602 19.2842L4.95475 19.5513C4.87696 19.5772 4.8093 19.6269 4.76136 19.6934C4.71341 19.76 4.68761 19.8399 4.68762 19.9219V21.875H3.51574V22.6562H11.3005V25H12.0818V22.2642L14.226 20.1199C14.3596 19.9864 14.5407 19.9114 14.7295 19.9114C14.9183 19.9114 15.0995 19.9864 15.233 20.1199L16.3868 21.2737C16.46 21.347 16.5012 21.4463 16.5012 21.5499C16.5012 21.6535 16.46 21.7529 16.3868 21.8261L16.1106 22.1023L14.7295 20.7212L14.1771 21.2737L15.5582 22.6547L15.282 22.931L13.9008 21.5499L13.3485 22.1023L14.7295 23.4833L14.4532 23.7598C14.3799 23.8329 14.2806 23.874 14.177 23.874C14.0735 23.874 13.9741 23.8329 13.9008 23.7598L13.3024 23.1612L12.75 23.7137L13.3484 24.3121C13.5683 24.5316 13.8664 24.6548 14.177 24.6548C14.4877 24.6548 14.7857 24.5316 15.0057 24.3121L15.099 24.2188H19.5314C19.635 24.2188 19.7343 24.1776 19.8076 24.1043C19.8808 24.0311 19.922 23.9317 19.922 23.8281V22.6562H19.1407V23.4375H15.8803L16.9392 22.3786C17.1589 22.1589 17.2823 21.8611 17.2824 21.5504C17.2826 21.2398 17.1594 20.9419 16.9399 20.722L17.2166 20.4453L18.8966 21.7894C18.9735 21.8509 19.0707 21.8811 19.1689 21.874C19.2671 21.8668 19.359 21.8229 19.4262 21.7509L21.8997 19.1007L22.2657 19.6495V25H23.047V19.5312C23.047 19.4541 23.0241 19.3788 22.9814 19.3146L22.4476 18.5138L24.8951 15.8915C24.9642 15.8175 25.0018 15.7195 25.0001 15.6182C24.9983 15.517 24.9573 15.4203 24.8857 15.3487L22.542 13.005ZM0.732537 9.10645C0.732537 8.71533 0.848518 8.33299 1.06581 8.00778C1.28311 7.68258 1.59196 7.42911 1.9533 7.27944C2.31465 7.12976 2.71227 7.0906 3.09588 7.1669C3.47948 7.24321 3.83184 7.43155 4.10841 7.70811C4.38497 7.98468 4.57331 8.33704 4.64962 8.72065C4.72592 9.10425 4.68676 9.50187 4.53708 9.86322C4.38741 10.2246 4.13394 10.5334 3.80874 10.7507C3.48353 10.968 3.1012 11.084 2.71008 11.084C2.18578 11.0834 1.68313 10.8749 1.3124 10.5041C0.94167 10.1334 0.733131 9.63074 0.732537 9.10645ZM15.2345 10.3851L14.0128 11.6067L13.1074 11.0031C13.0432 10.9603 12.9679 10.9375 12.8907 10.9375H11.7189C11.6417 10.9375 11.5663 10.9603 11.5022 11.0031L10.7063 11.5339L10.547 11.3428V11.3281H10.5346L9.76574 10.4053V8.70029C9.77579 8.66566 9.78098 8.62981 9.78117 8.59375V6.64062C9.78088 6.60498 9.77569 6.56954 9.76574 6.5353V5.46875H15.2345V10.3851ZM13.4495 12.1701L13.1195 12.5H11.5112L11.2091 12.1375L11.8371 11.7188H12.7724L13.4495 12.1701ZM16.4107 6.79053L16.4195 7.91318L16.0157 8.04951V6.92217L16.4107 6.79053ZM11.7512 0.78125H14.0145L15.2345 1.08623V4.6875H14.4532V2.34375H13.672V4.6875H12.8907V1.5625H12.1095V4.6875H11.3282V2.34375H10.547V4.6875H9.76574V1.11216L11.7512 0.78125ZM8.59611 7.91323L8.60505 6.79058L8.98449 6.91699V8.04429L8.59611 7.91323ZM11.0282 13.1407C11.0649 13.1847 11.1107 13.2201 11.1626 13.2444C11.2144 13.2687 11.271 13.2812 11.3282 13.2812H13.2814C13.3327 13.2813 13.3835 13.2712 13.4309 13.2515C13.4782 13.2319 13.5213 13.2031 13.5576 13.1668L14.4532 12.2712V13.8532L12.5001 15.1553L10.547 13.8532V12.5635L11.0282 13.1407ZM5.62023 16.4062H9.76574V15.625H8.98449V14.4531H10.0381L11.8168 15.6389L7.97346 18.4341C7.92363 18.4703 7.88309 18.5178 7.85513 18.5727C7.82718 18.6276 7.81261 18.6884 7.81262 18.75V19.0698L7.78776 19.0035C7.75227 18.9088 7.68145 18.8316 7.5902 18.788C7.49895 18.7445 7.39437 18.738 7.29846 18.77L6.49714 19.0371L5.62023 16.4062ZM5.46887 21.875V20.2034L7.1884 19.6303L8.03019 21.875H5.46887ZM14.7295 19.1301C14.5333 19.1296 14.3389 19.168 14.1577 19.243C13.9764 19.3181 13.8119 19.4284 13.6736 19.5675C13.6736 19.5675 11.3863 21.8578 11.374 21.875H8.86457L8.6009 21.1713L8.59387 21.0938V18.9489L12.7236 15.9455L14.9621 14.4531H15.6251V16.0156C15.6251 16.1192 15.6663 16.2186 15.7395 16.2918C15.8128 16.3651 15.9121 16.4062 16.0157 16.4062H18.4867L15.4759 19.3298C15.2491 19.1985 14.9916 19.1296 14.7295 19.1301ZM16.9114 19.6457L16.3875 20.1696L16.0646 19.8469L22.2617 13.8296L22.8945 14.4625L17.805 19.9155L17.4318 19.6168C17.3567 19.5568 17.2621 19.5265 17.1661 19.5318C17.0701 19.5371 16.9794 19.5776 16.9114 19.6457H16.9114ZM19.1022 20.9532L18.4169 20.4053L23.4474 15.0152L24.0665 15.6343L19.1022 20.9532Z" fill="#333333"/>
</g>
<defs>
<clipPath id="clip0_1_2945">
<rect width="25" height="25" fill="white"/>
</clipPath>
</defs>
</svg>
