<svg width="25" height="25" viewBox="0 0 25 25" fill="none" xmlns="http://www.w3.org/2000/svg">
<g opacity="0.5" clip-path="url(#clip0_1_3040)">
<path d="M21.8184 21.6082C21.8184 21.8592 21.6149 22.0627 21.3639 22.0627C21.1127 22.0627 20.9092 21.8592 20.9092 21.6082C20.9092 21.357 21.1127 21.1534 21.3639 21.1534C21.6149 21.1534 21.8184 21.357 21.8184 21.6082Z" fill="#333333"/>
<path d="M20.909 20.2442C20.909 20.4954 20.7055 20.6989 20.4545 20.6989C20.2035 20.6989 20 20.4954 20 20.2442C20 19.9932 20.2035 19.7897 20.4545 19.7897C20.7055 19.7897 20.909 19.9932 20.909 20.2442Z" fill="#333333"/>
<path d="M20.0001 18.8804C20.0001 19.1314 19.7966 19.3349 19.5456 19.3349C19.2946 19.3349 19.0911 19.1314 19.0911 18.8804C19.0911 18.6294 19.2946 18.4259 19.5456 18.4259C19.7966 18.4259 20.0001 18.6294 20.0001 18.8804Z" fill="#333333"/>
<path d="M21.8184 18.8804C21.8184 19.1314 21.6149 19.3349 21.3639 19.3349C21.1127 19.3349 20.9092 19.1314 20.9092 18.8804C20.9092 18.6294 21.1127 18.4259 21.3639 18.4259C21.6149 18.4259 21.8184 18.6294 21.8184 18.8804Z" fill="#333333"/>
<path d="M19.0909 17.5172C19.0909 17.7682 18.8874 17.9718 18.6364 17.9718C18.3854 17.9718 18.1819 17.7682 18.1819 17.5172C18.1819 17.266 18.3854 17.0625 18.6364 17.0625C18.8874 17.0625 19.0909 17.266 19.0909 17.5172Z" fill="#333333"/>
<path d="M20.909 17.5172C20.909 17.7682 20.7055 17.9718 20.4545 17.9718C20.2035 17.9718 20 17.7682 20 17.5172C20 17.266 20.2035 17.0625 20.4545 17.0625C20.7055 17.0625 20.909 17.266 20.909 17.5172Z" fill="#333333"/>
<path d="M18.182 16.1534C18.182 16.4044 17.9784 16.6079 17.7272 16.6079C17.4762 16.6079 17.2727 16.4044 17.2727 16.1534C17.2727 15.9024 17.4762 15.6989 17.7272 15.6989C17.9784 15.6989 18.182 15.9024 18.182 16.1534Z" fill="#333333"/>
<path d="M20.0001 16.1534C20.0001 16.4044 19.7966 16.6079 19.5456 16.6079C19.2946 16.6079 19.0911 16.4044 19.0911 16.1534C19.0911 15.9024 19.2946 15.6989 19.5456 15.6989C19.7966 15.6989 20.0001 15.9024 20.0001 16.1534Z" fill="#333333"/>
<path d="M22.7273 22.9714C22.7273 23.2224 22.5238 23.4259 22.2728 23.4259C22.0216 23.4259 21.8181 23.2224 21.8181 22.9714C21.8181 22.7204 22.0216 22.5168 22.2728 22.5168C22.5238 22.5168 22.7273 22.7204 22.7273 22.9714Z" fill="#333333"/>
<path d="M20.909 22.9714C20.909 23.2224 20.7055 23.4259 20.4545 23.4259C20.2035 23.4259 20 23.2224 20 22.9714C20 22.7204 20.2035 22.5168 20.4545 22.5168C20.7055 22.5168 20.909 22.7204 20.909 22.9714Z" fill="#333333"/>
<path d="M20.0001 21.6082C20.0001 21.8592 19.7966 22.0627 19.5456 22.0627C19.2946 22.0627 19.0911 21.8592 19.0911 21.6082C19.0911 21.357 19.2946 21.1534 19.5456 21.1534C19.7966 21.1534 20.0001 21.357 20.0001 21.6082Z" fill="#333333"/>
<path d="M19.0909 20.2442C19.0909 20.4954 18.8874 20.6989 18.6364 20.6989C18.3854 20.6989 18.1819 20.4954 18.1819 20.2442C18.1819 19.9932 18.3854 19.7897 18.6364 19.7897C18.8874 19.7897 19.0909 19.9932 19.0909 20.2442Z" fill="#333333"/>
<path d="M18.182 18.8804C18.182 19.1314 17.9784 19.3349 17.7272 19.3349C17.4762 19.3349 17.2727 19.1314 17.2727 18.8804C17.2727 18.6294 17.4762 18.4259 17.7272 18.4259C17.9784 18.4259 18.182 18.6294 18.182 18.8804Z" fill="#333333"/>
<path d="M17.2726 17.5172C17.2726 17.7682 17.0691 17.9718 16.818 17.9718C16.567 17.9718 16.3635 17.7682 16.3635 17.5172C16.3635 17.266 16.567 17.0625 16.818 17.0625C17.0691 17.0625 17.2726 17.266 17.2726 17.5172Z" fill="#333333"/>
<path d="M18.182 21.6082C18.182 21.8592 17.9784 22.0627 17.7272 22.0627C17.4762 22.0627 17.2727 21.8592 17.2727 21.6082C17.2727 21.357 17.4762 21.1534 17.7272 21.1534C17.9784 21.1534 18.182 21.357 18.182 21.6082Z" fill="#333333"/>
<path d="M17.2726 20.2442C17.2726 20.4954 17.0691 20.6989 16.818 20.6989C16.567 20.6989 16.3635 20.4954 16.3635 20.2442C16.3635 19.9932 16.567 19.7897 16.818 19.7897C17.0691 19.7897 17.2726 19.9932 17.2726 20.2442Z" fill="#333333"/>
<path d="M16.3639 18.8804C16.3639 19.1314 16.1604 19.3349 15.9094 19.3349C15.6583 19.3349 15.4548 19.1314 15.4548 18.8804C15.4548 18.6294 15.6583 18.4259 15.9094 18.4259C16.1604 18.4259 16.3639 18.6294 16.3639 18.8804Z" fill="#333333"/>
<path d="M19.0909 22.9714C19.0909 23.2224 18.8874 23.4259 18.6364 23.4259C18.3854 23.4259 18.1819 23.2224 18.1819 22.9714C18.1819 22.7204 18.3854 22.5168 18.6364 22.5168C18.8874 22.5168 19.0909 22.7204 19.0909 22.9714Z" fill="#333333"/>
<path d="M17.2726 22.9714C17.2726 23.2224 17.0691 23.4259 16.818 23.4259C16.567 23.4259 16.3635 23.2224 16.3635 22.9714C16.3635 22.7204 16.567 22.5168 16.818 22.5168C17.0691 22.5168 17.2726 22.7204 17.2726 22.9714Z" fill="#333333"/>
<path d="M16.3639 21.6082C16.3639 21.8592 16.1604 22.0627 15.9094 22.0627C15.6583 22.0627 15.4548 21.8592 15.4548 21.6082C15.4548 21.357 15.6583 21.1534 15.9094 21.1534C16.1604 21.1534 16.3639 21.357 16.3639 21.6082Z" fill="#333333"/>
<path d="M15.4547 20.2442C15.4547 20.4954 15.2511 20.6989 15.0001 20.6989C14.7489 20.6989 14.5454 20.4954 14.5454 20.2442C14.5454 19.9932 14.7489 19.7897 15.0001 19.7897C15.2511 19.7897 15.4547 19.9932 15.4547 20.2442Z" fill="#333333"/>
<path d="M14.5455 21.6082C14.5455 21.8592 14.342 22.0627 14.091 22.0627C13.84 22.0627 13.6365 21.8592 13.6365 21.6082C13.6365 21.357 13.84 21.1534 14.091 21.1534C14.342 21.1534 14.5455 21.357 14.5455 21.6082Z" fill="#333333"/>
<path d="M15.4547 22.9714C15.4547 23.2224 15.2511 23.4259 15.0001 23.4259C14.7489 23.4259 14.5454 23.2224 14.5454 22.9714C14.5454 22.7204 14.7489 22.5168 15.0001 22.5168C15.2511 22.5168 15.4547 22.7204 15.4547 22.9714Z" fill="#333333"/>
<path d="M13.6366 22.9714C13.6366 23.2224 13.4331 23.4259 13.1821 23.4259C12.9311 23.4259 12.7275 23.2224 12.7275 22.9714C12.7275 22.7204 12.9311 22.5168 13.1821 22.5168C13.4331 22.5168 13.6366 22.7204 13.6366 22.9714Z" fill="#333333"/>
<path d="M24.2609 20.7833C23.7995 20.2123 23.1537 19.1609 22.5296 18.1437C21.8756 17.0773 21.2568 16.0701 20.781 15.4822C20.0401 14.5682 19.1305 14.0099 18.1814 13.9014V0.69854C18.1814 0.447151 17.9777 0.244019 17.7269 0.244019H3.63922C3.63693 0.244019 3.63465 0.245354 3.63236 0.245354C3.63007 0.245354 3.62778 0.244019 3.62549 0.244019H0.454521C0.203705 0.244019 0 0.447342 0 0.69854V21.6079C0 21.7892 0.108147 21.9537 0.27504 22.0256L3.44601 23.3891C3.50361 23.4137 3.56445 23.4259 3.62549 23.4259C3.62816 23.4259 3.63102 23.4252 3.63369 23.4252C3.63598 23.4252 3.63732 23.4259 3.6396 23.4259H10.6682C10.6945 23.5442 10.73 23.6598 10.7851 23.7679C11.0228 24.2337 11.6308 24.7897 13.1765 24.7897H21.431C23.1465 24.7897 24.3847 24.2583 24.827 23.3319C25.1846 22.5823 24.9838 21.6773 24.2609 20.7833ZM3.17097 22.281L0.909043 21.3086V1.15306H3.17097V22.281ZM4.09355 1.15306H17.2728V13.9258C17.1509 13.9468 17.0305 13.9754 16.9109 14.0109C16.8787 14.0204 16.847 14.034 16.8152 14.0445C16.7229 14.075 16.6306 14.1072 16.5402 14.1463C16.4946 14.1658 16.4505 14.189 16.4061 14.2104C16.3296 14.2472 16.2539 14.2848 16.1791 14.3275C16.132 14.3544 16.0854 14.384 16.0391 14.413C15.9683 14.4576 15.8987 14.5043 15.8297 14.5545C15.7837 14.5875 15.7377 14.6216 15.6929 14.6577C15.6242 14.7116 15.5575 14.7689 15.4911 14.828C15.4488 14.8658 15.406 14.9026 15.3647 14.9426C15.2937 15.0107 15.2256 15.0836 15.1573 15.1576C15.1234 15.1948 15.0883 15.2295 15.0551 15.268C14.9555 15.3836 14.8583 15.5043 14.7656 15.6331C14.3574 16.1986 13.8588 17.0554 13.3251 17.9967C13.2156 18.1899 13.1052 18.3848 12.9929 18.5839C12.7874 18.9481 12.5801 19.3145 12.3774 19.6677C11.9583 20.3967 11.5578 21.0658 11.237 21.5085C11.231 21.5167 11.227 21.5245 11.2209 21.5327C11.157 21.6222 11.0987 21.7109 11.0447 21.7986C11.0287 21.8249 11.0146 21.8512 10.9997 21.8777C10.9583 21.9495 10.9196 22.0208 10.8851 22.0918C10.8719 22.1186 10.8601 22.1455 10.8479 22.1722C10.816 22.2428 10.7878 22.3126 10.7628 22.3819C10.7538 22.4068 10.7441 22.4322 10.7361 22.4572C10.7296 22.4768 10.721 22.4973 10.7151 22.5169H4.09355V1.15306ZM13.1765 23.8805C12.3419 23.8805 11.7655 23.6886 11.5952 23.355C11.5952 23.3546 11.5952 23.3542 11.5952 23.3542C11.726 23.2741 11.8183 23.1364 11.8183 22.9714C11.8183 22.8284 11.7477 22.7055 11.6438 22.6224C11.651 22.605 11.6551 22.5888 11.6629 22.5711C11.6684 22.5583 11.6753 22.5451 11.681 22.532C11.7102 22.4688 11.7441 22.4038 11.7825 22.3378C11.7924 22.3206 11.8015 22.3033 11.8124 22.2861C11.8601 22.2064 11.9129 22.1255 11.9724 22.0429C11.9873 22.0219 12.0037 21.997 12.0192 21.9756C12.0928 22.0256 12.1769 22.0624 12.2728 22.0624C12.5238 22.0624 12.7274 21.8587 12.7274 21.6079C12.7274 21.4452 12.637 21.3088 12.5084 21.2283C12.6329 21.0265 12.7615 20.8123 12.8937 20.5878C12.9725 20.6542 13.0705 20.6988 13.1819 20.6988C13.4329 20.6988 13.6364 20.4951 13.6364 20.2441C13.6364 20.0478 13.5105 19.8846 13.3366 19.8211C13.3728 19.757 13.4096 19.6929 13.4461 19.6282C13.5391 19.4642 13.6318 19.3002 13.7247 19.1359C13.8069 19.2532 13.937 19.3351 14.0911 19.3351C14.3419 19.3351 14.5456 19.1314 14.5456 18.8805C14.5456 18.6404 14.3583 18.4497 14.123 18.4323C14.2748 18.1645 14.4251 17.9019 14.5725 17.6492C14.6298 17.8342 14.7961 17.9713 15.0002 17.9713C15.2512 17.9713 15.4549 17.7678 15.4549 17.5168C15.4549 17.266 15.2512 17.0623 15.0002 17.0623C14.9679 17.0623 14.9393 17.0741 14.909 17.081C15.1112 16.7468 15.2998 16.4523 15.4675 16.2156C15.4989 16.4355 15.6803 16.6077 15.9094 16.6077C16.1602 16.6077 16.3639 16.404 16.3639 16.1532C16.3639 15.9024 16.1602 15.6987 15.9094 15.6987C15.9035 15.6987 15.8983 15.7019 15.8926 15.7019C16.0143 15.5759 16.1385 15.4574 16.2685 15.3565C16.3521 15.2915 16.4372 15.2333 16.5236 15.1791C16.5318 15.1742 16.5394 15.1673 16.5476 15.1624C16.9266 14.9297 17.3302 14.8019 17.7403 14.7904C17.7412 14.7904 17.7418 14.79 17.7422 14.79C17.7622 14.7895 17.7822 14.7891 17.8022 14.7891C18.6071 14.7891 19.4122 15.2364 20.0749 16.0546C20.5141 16.5959 21.1449 17.6245 21.7554 18.6192C22.0186 19.0482 22.2849 19.481 22.5428 19.8872C22.4663 19.83 22.3763 19.7896 22.2731 19.7896C22.0223 19.7896 21.8186 19.9933 21.8186 20.2441C21.8186 20.4949 22.0223 20.6986 22.2731 20.6986C22.5241 20.6986 22.7278 20.4949 22.7278 20.2441C22.7278 20.2096 22.7154 20.1796 22.7081 20.1472C22.9935 20.5895 23.2622 20.9822 23.4995 21.2836C23.4173 21.2031 23.3059 21.1531 23.1823 21.1531C22.9313 21.1531 22.7278 21.3569 22.7278 21.6079C22.7278 21.8587 22.9313 22.0624 23.1823 22.0624C23.4331 22.0624 23.6368 21.8587 23.6368 21.6079C23.6368 21.4915 23.5899 21.3883 23.5182 21.3078C23.53 21.3227 23.5432 21.341 23.555 21.3549C23.8951 21.7755 24.0723 22.1742 24.0854 22.5182C23.8373 22.5219 23.6368 22.7227 23.6368 22.9714C23.6368 23.0841 23.6824 23.1837 23.7501 23.2632C23.3164 23.6533 22.4951 23.8805 21.4314 23.8805H13.1765Z" fill="#333333"/>
<path d="M9.5456 11.7114C9.79642 11.7114 10.0001 11.508 10.0001 11.2566V9.59401C10.0001 9.5263 9.99478 9.45954 9.99021 9.39316L10.1302 9.53316C10.2189 9.62185 10.3352 9.6663 10.4516 9.6663C10.5679 9.6663 10.6843 9.62166 10.773 9.53316L10.9202 9.38591C10.9147 9.45496 10.9094 9.52363 10.9094 9.59401V11.2566C10.9094 11.508 11.1129 11.7114 11.3639 11.7114H13.0265C14.6161 11.7114 15.9093 10.4182 15.9093 8.82897V7.16576C15.9093 6.91437 15.7056 6.71124 15.4548 6.71124H13.7921C13.4156 6.71124 13.057 6.78563 12.7271 6.91761C12.9216 5.99522 12.6634 4.99539 11.9485 4.28032L10.7724 3.10425C10.5946 2.92668 10.3074 2.92668 10.1298 3.10425L8.95394 4.2807C8.23983 4.99481 7.981 5.9935 8.17479 6.91475C7.8471 6.78467 7.49119 6.71105 7.11754 6.71105H5.45471C5.20371 6.71105 5 6.91437 5 7.16576V8.82878C5 10.418 6.29318 11.7112 7.88277 11.7112H9.5456V11.7114ZM15.0002 7.62028V8.82897C15.0002 9.91711 14.1147 10.8021 13.0265 10.8021H11.8184V9.59401C11.8184 8.50529 12.7038 7.62028 13.7919 7.62028H15.0002ZM9.59653 4.92348L10.451 4.06899L11.3055 4.92348C12.0748 5.69271 12.0748 6.94489 11.3055 7.7145L10.451 8.569L9.59653 7.7145C8.82748 6.94489 8.82748 5.69271 9.59653 4.92348ZM5.90923 8.82935V7.62085H7.11735C8.2055 7.62085 9.09108 8.50586 9.09108 9.59439V10.8027H7.88277C6.79463 10.8021 5.90923 9.91711 5.90923 8.82935Z" fill="#333333"/>
<path d="M14.5456 14.7895C14.5456 14.5381 14.3421 14.335 14.0911 14.335H7.27288C7.02206 14.335 6.81836 14.5381 6.81836 14.7895C6.81836 15.0409 7.02206 15.2442 7.27288 15.2442H14.0911C14.3421 15.2442 14.5456 15.0409 14.5456 14.7895Z" fill="#333333"/>
<path d="M8.63635 12.9717C8.38535 12.9717 8.18164 13.1748 8.18164 13.4262C8.18164 13.6776 8.38535 13.8807 8.63635 13.8807H13.1818C13.4326 13.8807 13.6363 13.6776 13.6363 13.4262C13.6363 13.1748 13.4326 12.9717 13.1818 12.9717H8.63635Z" fill="#333333"/>
<path d="M13.6363 16.1534C13.6363 15.902 13.4326 15.6989 13.1818 15.6989H8.63635C8.38535 15.6989 8.18164 15.902 8.18164 16.1534C8.18164 16.4048 8.38535 16.6079 8.63635 16.6079H13.1818C13.4328 16.6079 13.6363 16.4048 13.6363 16.1534Z" fill="#333333"/>
</g>
<defs>
<clipPath id="clip0_1_3040">
<rect width="25" height="25" fill="white"/>
</clipPath>
</defs>
</svg>
