<svg width="25" height="25" viewBox="0 0 25 25" fill="none" xmlns="http://www.w3.org/2000/svg">
<g opacity="0.5" clip-path="url(#clip0_1_3077)">
<path d="M18.0531 8.07975C19.2984 7.88196 20.2593 6.92085 20.4573 5.67554L20.9167 4.01233L19.2539 4.47181C18.0086 4.6696 17.0475 5.63071 16.8493 6.87602L16.6483 7.60501H16.6477L0.135612 24.1177C-0.0452042 24.2983 -0.0452042 24.5905 0.135612 24.7711C0.22583 24.8614 0.344086 24.9066 0.462341 24.9066C0.580788 24.9066 0.699043 24.8614 0.789261 24.7711L17.2621 8.29833L18.0531 8.07975ZM17.7589 7.04139C17.8875 6.17755 18.5545 5.50998 19.4185 5.382L19.5913 5.33755L19.5471 5.50998C19.4185 6.37401 18.7513 7.04158 17.8875 7.16956L17.7145 7.21381L17.7589 7.04139Z" fill="#333333"/>
<path d="M15.0372 8.84522L15.8882 7.34528C16.6287 6.32466 16.6292 4.9651 15.8882 3.94486L15.0372 2.44397L14.1861 3.94486C13.4451 4.9651 13.4451 6.32466 14.1861 7.34528L15.0372 8.84522ZM14.9466 4.47148L15.0376 4.31794L15.1282 4.47148C15.6483 5.17319 15.6483 6.11657 15.1282 6.81886L15.0376 6.97182L14.947 6.81886C14.4265 6.116 14.4265 5.17262 14.9466 4.47148Z" fill="#333333"/>
<path d="M17.5615 9.01944L16.061 9.8705L17.5615 10.7216C18.072 11.0922 18.6669 11.2772 19.2618 11.2772C19.8567 11.2772 20.4516 11.0922 20.962 10.7216L22.4629 9.8705L20.962 9.01944C19.9423 8.27786 18.5827 8.27786 17.5615 9.01944ZM20.4355 9.9611C19.7338 10.481 18.7903 10.481 18.0885 9.9611L17.9352 9.8705L18.0885 9.7799C18.7912 9.259 19.7342 9.259 20.4355 9.7799L20.5889 9.8705L20.4355 9.9611Z" fill="#333333"/>
<path d="M12.0952 11.7881L12.9463 10.287C13.6873 9.26636 13.6873 7.90775 12.9463 6.88713L12.0952 5.38605L11.2442 6.88713C10.5036 7.90775 10.5036 9.26636 11.2442 10.287L12.0952 11.7881ZM12.0046 7.41356L12.0952 7.26021L12.1862 7.41356C12.7064 8.11527 12.7064 9.05884 12.1862 9.76017L12.0952 9.91352L12.0046 9.76017C11.4845 9.05884 11.4845 8.11527 12.0046 7.41356Z" fill="#333333"/>
<path d="M14.6201 11.9606L13.1196 12.8117L14.6201 13.6627C15.1304 14.0335 15.7253 14.2185 16.3207 14.2185C16.9156 14.2185 17.5105 14.0335 18.0213 13.6627L19.5215 12.8117L18.0213 11.9606C16.9999 11.22 15.6408 11.22 14.6201 11.9606ZM17.4939 12.9023C16.7913 13.4232 15.8483 13.4222 15.1466 12.9023L14.9932 12.8117L15.1466 12.7211C15.8489 12.2015 16.7922 12.2009 17.4939 12.7211L17.6475 12.8117L17.4939 12.9023Z" fill="#333333"/>
<path d="M9.15339 14.7296L10.0045 13.2287C10.7451 12.2085 10.7451 10.8493 10.0045 9.82832L9.15339 8.32819L8.30234 9.82832C7.56133 10.8489 7.56133 12.2085 8.30234 13.2287L9.15339 14.7296ZM9.0628 10.3544L9.15339 10.2014L9.24399 10.3544C9.76413 11.057 9.76413 12.0006 9.24399 12.7017L9.15339 12.8553L9.06241 12.7017C8.54228 12.0004 8.54228 11.057 9.0628 10.3544Z" fill="#333333"/>
<path d="M11.6782 14.9025L10.1777 15.7535L11.6782 16.6046C12.1885 16.975 12.7836 17.1602 13.3785 17.1602C13.9734 17.1602 14.5683 16.975 15.0785 16.6046L16.579 15.7535L15.0785 14.9025C14.0579 14.1624 12.6989 14.1624 11.6782 14.9025ZM14.552 15.8441C13.8503 16.3642 12.9073 16.3646 12.2047 15.8441L12.0513 15.7535L12.2047 15.6629C12.907 15.143 13.8503 15.143 14.552 15.6629L14.7056 15.7535L14.552 15.8441Z" fill="#333333"/>
<path d="M6.21156 17.6705L7.06281 16.1706C7.80381 15.1499 7.80381 13.7908 7.06281 12.7701L6.21156 11.2702L5.3605 12.7701C4.62007 13.7908 4.62007 15.1499 5.3605 16.1706L6.21156 17.6705ZM6.12115 13.2966L6.21156 13.1436L6.30216 13.2966C6.82229 13.9992 6.82229 14.9424 6.30216 15.6445L6.21156 15.7975L6.12115 15.6445C5.60102 14.9418 5.60102 13.9989 6.12115 13.2966Z" fill="#333333"/>
<path d="M8.73611 17.8443L7.2356 18.6953L8.73611 19.5464C9.24632 19.917 9.84122 20.102 10.4361 20.102C11.0312 20.102 11.6261 19.917 12.1363 19.5464L13.6368 18.6953L12.1363 17.8443C11.1163 17.1033 9.7573 17.1033 8.73611 17.8443ZM11.6105 18.7863C10.9082 19.3062 9.96482 19.3062 9.26311 18.7863L9.10957 18.6957L9.26311 18.6051C9.9652 18.0842 10.9088 18.0842 11.6105 18.6051L11.7638 18.6957L11.6105 18.7863Z" fill="#333333"/>
<path d="M3.26961 20.6132L4.12066 19.1123C4.86167 18.0915 4.86167 16.7329 4.12066 15.7123L3.26961 14.211L2.41855 15.7119C1.67754 16.7327 1.67754 18.0913 2.41855 19.1119L3.26961 20.6132ZM3.17843 16.2389L3.26961 16.0854L3.36059 16.2389C3.88072 16.9406 3.88072 17.884 3.36059 18.5853L3.26961 18.7389L3.17843 18.5853C2.65849 17.8836 2.65849 16.94 3.17843 16.2389Z" fill="#333333"/>
<path d="M5.79451 20.7863L4.29419 21.6373L5.79451 22.4884C6.30492 22.8592 6.89982 23.0442 7.49472 23.0442C8.09019 23.0442 8.68472 22.8592 9.1955 22.4884L10.696 21.6373L9.1955 20.7863C8.17488 20.0458 6.8157 20.0458 5.79451 20.7863ZM8.6685 21.7279C7.96622 22.249 7.02284 22.249 6.32113 21.7279L6.16759 21.6373L6.32113 21.5467C7.02341 21.0268 7.96622 21.0268 8.6685 21.5467L8.82204 21.6373L8.6685 21.7279Z" fill="#333333"/>
<path d="M16.6925 3.58842C16.8108 3.58842 16.929 3.54303 17.0192 3.453L19.6344 0.838028C19.8152 0.657211 19.8152 0.365005 19.6344 0.18438C19.4536 0.00356293 19.1614 0.00356293 18.9808 0.18438L16.3656 2.79935C16.1848 2.98017 16.1848 3.27238 16.3656 3.453C16.4562 3.54322 16.5741 3.58842 16.6925 3.58842Z" fill="#333333"/>
<path d="M18.3269 4.10665C18.4171 4.19687 18.5355 4.24207 18.6538 4.24207C18.772 4.24207 18.8905 4.19687 18.9807 4.10665L22.2493 0.838028C22.4301 0.657211 22.4301 0.365196 22.2493 0.18438C22.0685 0.00356293 21.7763 0.00356293 21.5957 0.18438L18.327 3.453C18.1462 3.63325 18.1462 3.92603 18.3269 4.10665Z" fill="#333333"/>
<path d="M24.2106 2.79929L20.942 6.0681C20.7612 6.24873 20.7612 6.54093 20.942 6.72156C21.0322 6.81178 21.1505 6.85698 21.2689 6.85698C21.3872 6.85698 21.5054 6.81178 21.5957 6.72156L24.8643 3.45294C25.0451 3.27212 25.0451 2.9801 24.8643 2.79929C24.6837 2.61866 24.3914 2.61866 24.2106 2.79929Z" fill="#333333"/>
<path d="M21.2689 3.77997C21.3589 3.87 21.4774 3.91539 21.5956 3.91539C21.7141 3.91539 21.8323 3.87 21.9226 3.77997L24.8643 0.838078C25.0451 0.657262 25.0451 0.365247 24.8643 0.18443C24.6836 0.00380421 24.3914 0.00361348 24.2108 0.18443L21.2689 3.12632C21.0881 3.30657 21.0881 3.59916 21.2689 3.77997Z" fill="#333333"/>
<path d="M24.2108 5.41464L21.5958 8.02924C21.415 8.21005 21.415 8.50226 21.5958 8.68289C21.6858 8.7731 21.8043 8.81831 21.9225 8.81831C22.041 8.81831 22.1592 8.77291 22.2495 8.68289L24.8644 6.06829C25.0453 5.88748 25.0453 5.59546 24.8644 5.41464C24.6838 5.23402 24.3916 5.23402 24.2108 5.41464Z" fill="#333333"/>
</g>
<defs>
<clipPath id="clip0_1_3077">
<rect width="25" height="25" fill="white"/>
</clipPath>
</defs>
</svg>
