<svg width="25" height="25" viewBox="0 0 25 25" fill="none" xmlns="http://www.w3.org/2000/svg">
<g opacity="0.5" clip-path="url(#clip0_1_2996)">
<path d="M15.9459 11.1343C15.9925 11.1501 16.0405 11.1575 16.0871 11.1575C16.2705 11.1575 16.4416 11.0423 16.5036 10.8589C16.6413 10.4549 17.0817 10.238 17.4855 10.3748C18.3488 10.667 19.2906 10.2037 19.5832 9.34003C19.6616 9.11039 19.5384 8.86014 19.3084 8.78175C19.0774 8.70393 18.8283 8.82715 18.7501 9.05717C18.6128 9.46153 18.1724 9.6784 17.768 9.54126C16.9063 9.25039 15.9633 9.71273 15.6703 10.576C15.5925 10.8056 15.7157 11.0559 15.9459 11.1343Z" fill="#333333"/>
<path d="M16.987 8.06876C17.0338 8.08459 17.0816 8.09203 17.1282 8.09203C17.3117 8.09203 17.4827 7.97683 17.5447 7.79334C17.6113 7.59746 17.7498 7.43915 17.9356 7.3476C18.1211 7.25623 18.3309 7.24307 18.5268 7.30945C19.3899 7.60165 20.3316 7.13836 20.6245 6.27414C20.7027 6.0445 20.5791 5.79425 20.3495 5.71586C20.1195 5.63671 19.8694 5.76126 19.7916 5.99128C19.6545 6.39602 19.2148 6.61308 18.8097 6.47575C18.3908 6.33346 17.9424 6.36264 17.5465 6.55834C17.1505 6.75365 16.8541 7.09201 16.712 7.51048C16.6332 7.74051 16.7568 7.99056 16.987 8.06876Z" fill="#333333"/>
<path d="M18.0269 5.00312C18.0739 5.01895 18.1215 5.02639 18.1687 5.02639C18.3521 5.02639 18.5232 4.911 18.5852 4.72751C18.6863 4.4292 19.0125 4.2686 19.3102 4.36988C19.6776 4.49443 20.0714 4.46887 20.4193 4.29779C20.767 4.12612 21.027 3.82972 21.1519 3.46218C21.2301 3.23253 21.1069 2.98229 20.8769 2.90409C20.6459 2.82531 20.3968 2.94929 20.3186 3.17932C20.2692 3.32409 20.1668 3.4412 20.0298 3.50853C19.8931 3.57566 19.7382 3.58596 19.5931 3.53618C18.8355 3.2806 18.0088 3.68705 17.7519 4.44427C17.6741 4.67487 17.7967 4.92473 18.0269 5.00312Z" fill="#333333"/>
<path d="M21.2139 11.1018C21.1374 11.0495 21.0512 11.0196 20.963 11.0081C21.8372 8.16734 22.3169 5.38433 22.3855 2.73351C22.4071 1.89981 21.9997 0.78668 21.1782 0.271506C20.7841 0.0239327 20.1381 -0.180153 19.2996 0.251288C17.9855 0.929349 17.0457 2.92367 16.2908 4.52679C16.2473 4.61911 16.2046 4.70932 16.1624 4.79859C15.9955 4.03184 15.4888 3.3759 14.7682 3.03353C14.5984 2.217 13.9507 1.57727 13.1368 1.41153C13.128 1.36575 13.117 1.32074 13.1034 1.27553C12.9358 0.702757 12.4303 0.271506 11.8455 0.202079C11.5161 0.162978 11.1896 0.23107 10.9108 0.394339C10.6731 0.261969 10.4065 0.191588 10.1328 0.191588C9.36772 0.191588 8.72494 0.725263 8.55728 1.43937C7.72091 1.66711 7.10751 2.43462 7.10103 3.32688C6.14678 3.57331 5.45156 4.43562 5.45156 5.4612C5.45156 5.73319 5.50267 6.00231 5.60071 6.25618C5.35314 6.56193 5.21581 6.94473 5.21581 7.34642C5.21581 7.58751 5.2654 7.81982 5.35924 8.0344C4.91979 7.55489 4.30124 7.16293 3.60658 7.18849C3.36359 7.19631 3.17266 7.39925 3.1801 7.64206C3.18754 7.88009 3.38304 8.06835 3.61974 8.06835C3.63462 8.06892 3.64816 8.06758 3.66228 8.06758C4.07464 8.06758 4.45783 8.34033 4.73668 8.65695C4.03898 8.85818 3.19765 9.18529 2.80531 9.92553C2.56899 10.372 2.54133 10.9196 2.69888 11.5472C2.62277 11.6744 2.581 11.8222 2.58882 11.9795L3.33765 22.6208C3.40593 23.9552 4.5057 25 5.84142 25H18.1915C19.5272 25 20.627 23.9552 20.6947 22.6288L21.4624 11.6175C21.4624 11.6151 21.4629 11.6124 21.4629 11.6097C21.4752 11.4068 21.3815 11.2172 21.2139 11.1018ZM16.5212 6.05686C16.6955 5.73185 16.8855 5.32864 17.0865 4.90158C17.7478 3.49721 18.6542 1.57422 19.7027 1.03311C20.0853 0.835889 20.4149 0.831884 20.7105 1.01632C21.2203 1.33657 21.5205 2.14471 21.5059 2.71062C21.4385 5.31166 20.9634 8.04889 20.0933 10.8472C20.0647 10.9391 20.0014 11.1247 19.9111 11.3795L19.1614 11.7125C19.1451 11.72 19.1293 11.728 19.1139 11.7375C18.8974 11.8674 18.6546 11.9315 18.4116 11.9342C18.1688 11.9315 17.9264 11.8674 17.7099 11.7375L17.3963 11.5493C17.0354 11.3328 16.6311 11.2246 16.2267 11.2246C16.2219 11.2246 16.2172 11.2254 16.2118 11.2254C15.8027 11.2227 15.3926 11.3297 15.0274 11.5493L14.7142 11.7375C14.5395 11.8422 14.3465 11.8933 14.151 11.9153C14.162 11.8771 14.1748 11.8395 14.1862 11.8018C14.3068 11.3923 14.4361 10.9883 14.5715 10.5876C14.623 10.4352 14.6768 10.2839 14.7304 10.133C14.8435 9.8149 14.9618 9.50095 15.0842 9.18891C15.1388 9.04949 15.192 8.90872 15.2482 8.77063C15.6322 7.8347 16.0554 6.92718 16.5212 6.05686ZM10.9129 7.10037C10.9642 7.03438 11.0143 6.97029 11.062 6.90773C11.062 6.90697 11.0624 6.90639 11.0628 6.90601C11.0975 6.85985 11.1278 6.81179 11.1534 6.76372C11.2617 6.56021 11.2871 6.33133 11.2369 6.10779L13.0733 5.70629C13.0857 5.76256 13.0989 5.81844 13.12 5.87032C13.2022 6.07174 13.3493 6.2394 13.5538 6.35651C13.6207 6.39351 13.6907 6.43032 13.7628 6.46866C13.8221 6.49994 13.8816 6.53236 13.9413 6.56498C13.9699 6.58043 13.9989 6.59569 14.0275 6.61171C14.08 6.64108 14.1305 6.6737 14.1815 6.70574C14.2251 6.73263 14.2683 6.76029 14.3104 6.78986C14.3592 6.82362 14.406 6.861 14.4525 6.89895C14.4935 6.93233 14.5326 6.96895 14.5713 7.00634C14.6131 7.04716 14.6545 7.08893 14.6928 7.1347C14.7605 7.21557 14.8256 7.29969 14.8788 7.4004C14.6923 7.81219 14.5168 8.23238 14.347 8.656C14.3205 8.72161 14.2925 8.78551 14.2665 8.85093C13.7844 8.97319 13.3184 9.20207 12.743 9.61158C12.0178 10.1268 11.478 10.2637 10.5884 10.1348L10.3214 8.91216C10.1402 8.08551 10.5331 7.58484 10.9129 7.10037ZM13.0945 4.42856C13.1059 4.42646 13.1174 4.42513 13.1288 4.42513C13.212 4.42513 13.2898 4.48464 13.3079 4.56818C13.322 4.6315 13.2982 4.68129 13.2823 4.70532C13.2669 4.72916 13.2322 4.77093 13.1692 4.78447L10.7389 5.31643C10.6422 5.3376 10.5436 5.27333 10.5224 5.17739C10.5014 5.08107 10.5651 4.98207 10.6615 4.9609L11.9527 4.67842L13.0945 4.42856ZM11.6726 11.2334C11.6392 11.2357 11.6052 11.2364 11.5718 11.2401C11.3319 11.2643 11.0952 11.3249 10.8705 11.426L10.7864 11.0411C10.9132 11.0516 11.0395 11.0623 11.1578 11.0623C11.9251 11.0623 12.5429 10.8338 13.2528 10.3287C13.4763 10.1695 13.6743 10.0489 13.8626 9.94918C13.8221 10.064 13.7821 10.1783 13.743 10.2936C13.7147 10.3762 13.6844 10.4577 13.6571 10.5408C13.5278 10.9324 13.4046 11.327 13.2898 11.7253L12.9972 11.5502C12.6365 11.3337 12.2322 11.2254 11.8278 11.2254C11.8225 11.2254 11.8169 11.2263 11.8116 11.2263C11.7651 11.2254 11.7187 11.2307 11.6726 11.2334ZM6.41019 6.68381L6.69839 6.44634L6.51147 6.12381C6.39436 5.92144 6.33237 5.69256 6.33237 5.4612C6.33237 4.74842 6.89065 4.16726 7.60342 4.1375L8.13748 4.115L8.01293 3.59486C7.99195 3.50789 7.98127 3.42206 7.98127 3.34061C7.98127 2.77394 8.42396 2.29672 8.98873 2.25362L9.39537 2.22272V1.78498C9.40815 1.38959 9.73412 1.07145 10.1331 1.07145C10.3628 1.07145 10.5274 1.17616 10.6247 1.26409L10.9331 1.54256L11.2287 1.25055C11.3641 1.11684 11.5503 1.05428 11.7422 1.07621C11.9779 1.10406 12.1908 1.28793 12.2594 1.52425C12.2827 1.6034 12.2894 1.67989 12.2802 1.7579L12.2287 2.24923H12.7241C13.3564 2.24923 13.8851 2.74342 13.9287 3.37418L13.9486 3.66334L14.2217 3.75908C14.9093 4.00075 15.3617 4.65134 15.3463 5.37956C15.3396 5.69065 15.2393 5.99011 15.0575 6.25275C14.7632 6.00288 14.446 5.83447 14.1794 5.69409C14.1103 5.65746 14.0436 5.62237 13.9762 5.58499C13.9572 5.5743 13.9343 5.55599 13.9265 5.50965C13.916 5.44632 13.9396 5.37022 13.9877 5.31433C14.1794 5.09175 14.2564 4.78829 14.1944 4.5018L14.1412 4.25938C14.088 4.01467 13.9419 3.80581 13.7308 3.6702C13.52 3.53516 13.2692 3.48996 13.025 3.54356L12.907 3.56949C12.9056 3.56988 12.9045 3.56949 12.9032 3.56988L11.6119 3.85235L10.3519 4.12739C10.1078 4.1808 9.89872 4.32633 9.7633 4.53785C9.62769 4.74862 9.58286 4.99981 9.63608 5.24395L9.6624 5.36354V5.36488C9.6624 5.36545 9.66297 5.36583 9.66297 5.36679L9.68891 5.48599C9.75262 5.77896 9.95632 6.02577 10.2331 6.1446C10.3017 6.17397 10.359 6.22986 10.3788 6.2867C10.3902 6.31931 10.3836 6.33591 10.358 6.37825V6.37863C10.3145 6.43719 10.2674 6.49651 10.2195 6.55773C10.1711 6.61934 10.1209 6.684 10.0698 6.75095C10.0526 6.77326 10.0364 6.79653 10.0193 6.81942C9.98264 6.8692 9.94621 6.91974 9.91016 6.97258C9.89033 7.00119 9.87145 7.03075 9.85199 7.0607C9.81861 7.1122 9.78638 7.16522 9.75472 7.21996C9.73641 7.25162 9.71829 7.2829 9.70074 7.31571C9.66755 7.37732 9.6378 7.44198 9.60823 7.50816C9.59545 7.5362 9.58191 7.56309 9.57047 7.59266C9.53175 7.6884 9.49742 7.78873 9.47014 7.8944C9.46575 7.91118 9.46404 7.92911 9.46003 7.94628C9.43886 8.03611 9.42169 8.12881 9.41063 8.2257C9.40643 8.26442 9.40548 8.30486 9.40281 8.34491C9.39919 8.39679 9.3927 8.44619 9.3927 8.50017C9.39079 8.49807 9.38908 8.49578 9.38736 8.49369C9.38126 8.48567 9.37496 8.47862 9.36924 8.4708C9.29276 8.3699 9.21608 8.2772 9.13922 8.18908C9.11499 8.16143 9.09039 8.13472 9.06578 8.10821C9.00112 8.0384 8.93647 7.97279 8.87123 7.91118C8.85025 7.89135 8.82908 7.86979 8.80753 7.85034C8.72532 7.77691 8.64254 7.70958 8.55938 7.64969C8.53611 7.63309 8.51227 7.61898 8.489 7.60315C8.42644 7.56118 8.36407 7.52247 8.30056 7.48832C8.26985 7.47154 8.23952 7.45533 8.20824 7.44026C8.14263 7.40822 8.07663 7.38094 8.01026 7.3571C7.98832 7.34928 7.9662 7.3386 7.94426 7.33154C7.87217 7.30865 7.79969 7.29015 7.72664 7.27661C7.71824 7.27489 7.70985 7.27566 7.70146 7.27451C7.68658 7.27184 7.67209 7.26612 7.65702 7.26383C7.6059 7.25639 7.55746 7.25944 7.50729 7.25582C7.4722 7.25372 7.43748 7.24628 7.4022 7.24628C7.39171 7.24628 7.38064 7.24895 7.36977 7.24895C7.30149 7.24972 7.2355 7.25773 7.16912 7.26593C7.13612 7.27031 7.10313 7.27298 7.07013 7.27909C6.98334 7.29492 6.89942 7.31704 6.81626 7.34337C6.80348 7.34737 6.79108 7.35042 6.7783 7.35481C6.55934 7.4292 6.35163 7.53448 6.15727 7.66151C6.11722 7.56252 6.09605 7.45609 6.09605 7.34642C6.09662 7.08893 6.21106 6.84746 6.41019 6.68381ZM3.5835 10.3368C3.76966 9.98618 4.22151 9.71858 5.006 9.49428C5.37297 9.38957 5.71343 9.19368 5.98981 8.9297C6.11512 8.80973 6.23261 8.70807 6.3461 8.61576C6.70068 8.32756 7.00642 8.17077 7.28318 8.13511C7.28947 8.13434 7.29558 8.13339 7.30168 8.13301C7.38923 8.12328 7.4741 8.12595 7.5565 8.14045C7.57805 8.14445 7.59999 8.15189 7.62211 8.15761C7.66293 8.16772 7.70337 8.17783 7.74437 8.19423C7.7707 8.20434 7.79702 8.21979 7.82391 8.232C7.86206 8.2505 7.90001 8.26728 7.93835 8.29055C7.9683 8.30848 7.99805 8.33194 8.028 8.35254C8.06366 8.37753 8.09933 8.40042 8.13538 8.4296C8.16876 8.4563 8.20233 8.48892 8.23571 8.51924C8.26908 8.54957 8.30265 8.57742 8.33603 8.61118C8.37304 8.64856 8.41042 8.69205 8.4478 8.73401C8.47813 8.76777 8.50846 8.79905 8.53936 8.83567C8.58113 8.88584 8.62328 8.94287 8.66543 8.99837C8.69232 9.03365 8.71884 9.06532 8.74554 9.1027C8.7936 9.16965 8.84186 9.24384 8.89031 9.31785C8.91148 9.35027 8.93303 9.37946 8.95401 9.41284C9.02401 9.52327 9.09439 9.64076 9.16516 9.76569C9.48902 10.3371 9.59641 11.1813 9.45564 11.9166C9.43218 11.9143 9.4093 11.9109 9.38603 11.9073C9.21837 11.8786 9.05701 11.8251 8.90995 11.7369L8.59619 11.5487C8.23552 11.3322 7.83116 11.224 7.4268 11.224C7.42203 11.224 7.41726 11.2248 7.41192 11.2248C7.0028 11.2221 6.59272 11.3291 6.22746 11.5487L6.07488 11.6402C5.80861 11.7999 5.51049 11.8804 5.21218 11.883C4.9133 11.8804 4.61557 11.8003 4.34949 11.6402L3.75764 11.2847C3.75764 11.2847 3.75726 11.2847 3.75726 11.2843C3.67925 11.2382 3.59533 11.2063 3.50912 11.1907C3.44007 10.8426 3.46468 10.5611 3.5835 10.3368ZM19.8182 22.5754C19.7738 23.4412 19.0599 24.1196 18.1932 24.1196H5.84275C4.97548 24.1196 4.26195 23.4412 4.21712 22.567L3.48489 12.1655L3.8677 12.3953C4.28254 12.6443 4.74851 12.7667 5.21314 12.764C5.67815 12.7667 6.14354 12.6444 6.55839 12.3953L6.71117 12.3038C6.92746 12.1735 7.17007 12.1092 7.41288 12.1066C7.65568 12.1092 7.89811 12.1735 8.11497 12.3038L8.42873 12.4921C8.82565 12.7301 9.27521 12.8321 9.71962 12.8079C9.7591 12.8062 9.79878 12.8062 9.83883 12.8028C9.8436 12.8022 9.84818 12.7995 9.85333 12.7991C10.1537 12.7654 10.4486 12.6708 10.7204 12.5159C10.746 12.5065 10.7732 12.5062 10.7971 12.4921L11.1108 12.3038C11.3271 12.1735 11.5696 12.1092 11.8125 12.1066C12.0554 12.1092 12.2978 12.1735 12.5146 12.3038L12.8284 12.4921C13.1614 12.6914 13.532 12.7947 13.9045 12.8102C13.912 12.8106 13.92 12.8115 13.9274 12.8115C14.0558 12.8155 14.1843 12.8115 14.3119 12.7934C14.385 12.7841 14.4557 12.7658 14.5275 12.7494C14.5622 12.7412 14.5971 12.7335 14.6314 12.7234C14.8267 12.6694 15.018 12.5985 15.1962 12.4917L15.5099 12.3032C15.7264 12.1731 15.9688 12.1089 16.2116 12.1062C16.4545 12.1089 16.6971 12.1731 16.9139 12.3032L17.2277 12.4917C17.591 12.7093 17.9988 12.8163 18.4062 12.8146C18.4129 12.8146 18.4198 12.8159 18.4265 12.8159C18.8217 12.8159 19.2171 12.7129 19.5716 12.5062L20.4349 12.1224C20.4534 12.1142 20.4666 12.0982 20.4837 12.0877L20.551 12.0577L19.8182 22.5754Z" fill="#333333"/>
<path d="M5.22816 18.9198H8.30796C8.55077 18.9198 8.74799 18.7232 8.74799 18.4798C8.74799 18.2366 8.55077 18.0398 8.30796 18.0398H5.22816C4.98536 18.0398 4.78833 18.2366 4.78833 18.4798C4.78833 18.7232 4.98536 18.9198 5.22816 18.9198Z" fill="#333333"/>
<path d="M5.22816 20.6797H9.18782C9.43082 20.6797 9.62785 20.4831 9.62785 20.2397C9.62785 19.9963 9.43082 19.7997 9.18782 19.7997H5.22816C4.98536 19.7997 4.78833 19.9963 4.78833 20.2397C4.78833 20.4831 4.98536 20.6797 5.22816 20.6797Z" fill="#333333"/>
<path d="M10.0677 21.5594H5.22816C4.98536 21.5594 4.78833 21.7561 4.78833 21.9995C4.78833 22.2427 4.98536 22.4393 5.22816 22.4393H10.0677C10.3105 22.4393 10.5077 22.2427 10.5077 21.9995C10.5077 21.7561 10.3105 21.5594 10.0677 21.5594Z" fill="#333333"/>
<path d="M12.7073 21.5594H11.8275C11.5845 21.5594 11.3875 21.7561 11.3875 21.9995C11.3875 22.2427 11.5845 22.4393 11.8275 22.4393H12.7073C12.9501 22.4393 13.1474 22.2427 13.1474 21.9995C13.1474 21.7561 12.9503 21.5594 12.7073 21.5594Z" fill="#333333"/>
</g>
<defs>
<clipPath id="clip0_1_2996">
<rect width="25" height="25" fill="white"/>
</clipPath>
</defs>
</svg>
