<svg width="25" height="25" viewBox="0 0 25 25" fill="none" xmlns="http://www.w3.org/2000/svg">
<g opacity="0.5" clip-path="url(#clip0_1_3005)">
<path d="M23.9213 6.83099C23.0313 4.63944 21.3715 1.78871 18.5147 0.651732C16.4189 -0.182546 13.9902 0.0175359 11.2969 1.24511C7.92925 2.78034 6.82756 5.53208 8.19647 8.99394C8.62085 10.0676 8.45968 11.2402 7.76464 12.1306C7.06865 13.0225 5.96696 13.4619 4.82007 13.3143C2.99091 13.0745 1.58729 13.4844 0.758738 14.5012C0.124352 15.2802 -0.436983 16.7677 0.488656 19.4304L0.506013 19.4737C0.572008 19.6179 2.17628 23.0189 6.2935 24.3802C7.1829 24.6743 8.10415 24.756 8.99508 24.8345L9.13584 24.8471C9.433 24.8736 9.94627 24.9078 10.6123 24.9078C12.275 24.9078 14.8922 24.6951 17.4916 23.6195C21.2784 22.0528 23.6809 19.263 24.6321 15.3271C25.3007 12.5618 25.0546 9.62336 23.9213 6.83099ZM23.6945 15.1003C22.82 18.7199 20.609 21.2865 17.1227 22.7286C13.6854 24.15 10.2074 23.9736 9.22186 23.8862L9.08052 23.8736C8.20619 23.7964 7.38031 23.7231 6.59696 23.4641C3.03879 22.2876 1.51939 19.3482 1.39103 19.0879C0.791926 17.3499 0.832934 15.9386 1.5068 15.1104C2.11315 14.3666 3.21522 14.0772 4.69361 14.2706C6.18745 14.4679 7.6172 13.8886 8.52529 12.7243C9.43262 11.5614 9.64434 10.0342 9.09311 8.63936C7.90845 5.64252 8.7845 3.4504 11.6968 2.12288C14.1423 1.0086 16.3161 0.815192 18.1576 1.548C20.6982 2.5589 22.2075 5.17617 23.0269 7.19377C24.0847 9.79846 24.3153 12.5319 23.6945 15.1003Z" fill="#333333"/>
<path d="M16.139 9.08939C17.4688 9.08939 18.5506 8.00754 18.5506 6.67753C18.5506 5.34772 17.4688 4.26587 16.139 4.26587C14.8091 4.26587 13.7273 5.34772 13.7273 6.67753C13.7273 8.00754 14.8091 9.08939 16.139 9.08939ZM16.139 5.23061C16.9368 5.23061 17.5861 5.87969 17.5861 6.67753C17.5861 7.47557 16.9368 8.12465 16.139 8.12465C15.3411 8.12465 14.6918 7.47557 14.6918 6.67753C14.6918 5.87969 15.3411 5.23061 16.139 5.23061Z" fill="#333333"/>
<path d="M23.0487 11.7216C22.9875 10.342 22.6888 8.95035 22.1389 7.59556C20.0447 2.4394 16.6057 0.870791 11.9365 2.99635C11.0017 3.42283 8.15782 4.71945 9.69611 8.60989C10.2559 10.0271 10.094 11.5503 9.25169 12.7876C8.2982 14.1897 6.64815 14.9232 4.94164 14.698C3.67058 14.5282 2.71709 14.7806 2.27706 15.4005C1.81071 16.0568 1.81491 17.1938 2.28965 18.6006L2.31769 18.6668C2.5584 19.1366 3.9151 21.5309 6.99052 22.5483C7.68957 22.7793 8.45308 22.8468 9.26047 22.9181L9.39703 22.9301C9.80597 22.9669 10.245 22.9853 10.7022 22.9853C19.8137 22.9853 22.1675 17.3162 22.7565 14.8784C22.9986 13.8767 23.0907 12.8469 23.0526 11.8099C23.0554 11.7793 23.052 11.7509 23.0487 11.7216ZM12.3368 3.87431C13.5587 3.31717 14.6838 3.03507 15.6814 3.03507C18.0463 3.03507 19.9182 4.69199 21.2451 7.95834C21.6417 8.93509 21.8935 9.9315 22.0155 10.9262C19.8551 10.3164 16.0287 12.2116 15.3899 12.5406C12.5051 13.458 11.169 12.1427 10.8024 11.6773C11.099 10.5693 11.0393 9.38523 10.5926 8.2555C9.53493 5.57796 10.8808 4.53807 12.3368 3.87431ZM10.0501 13.3302C10.1953 13.117 10.3192 12.8951 10.4312 12.6693C10.995 13.186 11.9989 13.8193 13.5436 13.8193C14.1774 13.8193 14.9024 13.7123 15.7243 13.4469C15.7499 13.4387 15.7745 13.4284 15.7987 13.416C17.6986 12.4263 20.9911 11.2243 22.0966 12.0046C22.1164 12.9003 22.0275 13.7882 21.8193 14.6522C21.8145 14.6715 21.8086 14.6928 21.8038 14.7125C20.7532 14.4168 18.2056 14.1202 14.001 16.1369C12.5631 16.8266 11.3216 16.9613 10.312 16.5382C9.33581 16.1293 8.78935 15.2797 8.54711 14.8023C9.12829 14.4193 9.64346 13.9278 10.0501 13.3302ZM9.48325 21.969L9.3463 21.9568C8.59537 21.8908 7.88641 21.8281 7.2936 21.6322C4.60842 20.7437 3.38562 18.6229 3.19221 18.2573C2.77889 17.0129 2.85404 16.2551 3.06385 15.9589C3.27366 15.6633 3.95096 15.5397 4.81575 15.6541C5.78049 15.7814 6.72731 15.6459 7.58543 15.3024C7.61442 15.4592 7.64474 15.6368 7.67259 15.8281C7.91864 17.5058 8.85534 19.0164 10.2422 19.9739C11.2348 20.6585 11.9058 21.2757 11.9361 21.9786C11.5392 22.0041 11.131 22.0205 10.7022 22.0205C10.2738 22.0201 9.86338 22.0026 9.48325 21.969ZM12.9007 21.8923C12.823 20.585 11.5323 19.6918 10.79 19.1795C9.94254 18.5951 9.29518 17.7644 8.92477 16.8127C9.2084 17.0467 9.54085 17.2594 9.92709 17.4228C11.2048 17.9636 12.7155 17.8238 14.4187 17.0066C18.3685 15.1119 20.6775 15.4077 21.5217 15.6377C20.7199 17.8449 18.5764 21.1986 12.9007 21.8923Z" fill="#333333"/>
</g>
<defs>
<clipPath id="clip0_1_3005">
<rect width="25" height="25" fill="white"/>
</clipPath>
</defs>
</svg>
