<svg width="25" height="25" viewBox="0 0 25 25" fill="none" xmlns="http://www.w3.org/2000/svg">
<g opacity="0.5" clip-path="url(#clip0_1_3009)">
<path d="M16.9309 18.1545L16.9336 18.154L16.8892 17.6029C16.8138 16.6733 16.5685 15.6969 16.1182 14.5311C15.991 14.2019 15.92 13.8302 15.8914 13.4548C15.8281 12.6257 15.9916 11.7737 16.3643 11.2919C16.4369 11.1977 16.4972 11.0926 16.5569 10.9869C16.807 10.5455 16.9466 10.0168 16.9445 9.45606V9.45511C16.9439 9.41067 16.9422 9.36966 16.9395 9.32846L16.9206 8.69198L16.9084 8.69522C16.6309 5.44834 14.7205 4.58927 14.0905 4.38843C14.0362 4.29363 13.9612 4.10919 13.9105 3.76778C13.9068 3.74222 13.8979 3.71933 13.8925 3.69453C14.3789 3.53241 14.7318 3.26118 14.7318 2.84405V1.04771C14.7318 0.274277 13.5225 0 12.4864 0C11.4504 0 10.2409 0.274277 10.2409 1.04771V2.84405C10.2409 3.26138 10.594 3.53203 11.0798 3.69415C11.074 3.71838 11.0655 3.74184 11.0618 3.76701C11.0111 4.11015 10.9361 4.2942 10.8652 4.39835C10.2505 4.58965 8.34082 5.44834 8.06388 8.69579L8.04766 8.69122L8.03298 9.33437C8.03069 9.37386 8.02878 9.41334 8.0284 9.45606C8.02439 10.1513 8.23058 10.8034 8.60861 11.2928C8.94679 11.7302 9.11787 12.4735 9.09861 13.2275C9.09098 13.5294 9.05283 13.8325 8.98322 14.1186C8.94812 14.2612 8.90559 14.4001 8.85428 14.5321C8.74156 14.8235 8.6418 15.103 8.55425 15.3728C8.29161 16.1825 8.13979 16.906 8.08314 17.6039C7.94676 19.2928 7.82088 21.6364 7.99464 23.2309C8.01085 24.0448 8.77303 25 12.2616 25C15.1901 25 16.9483 24.3395 16.9771 23.2315C17.1335 21.8012 17.0486 19.7752 16.9309 18.1545ZM9.03834 17.2096C9.05035 17.127 9.06065 17.0448 9.0761 16.9603C9.09976 16.827 9.13123 16.6891 9.16308 16.5512C9.18196 16.4686 9.19817 16.3877 9.21973 16.3033C9.25921 16.1497 9.30823 15.9893 9.35763 15.8287C9.38052 15.7537 9.3994 15.6818 9.42458 15.605C9.50354 15.3643 9.59204 15.1155 9.69256 14.855C10.0569 13.9118 10.082 12.7573 9.82207 11.8191C9.70744 11.4069 9.54398 11.0323 9.31986 10.7428C9.31719 10.7391 9.31509 10.7346 9.31223 10.7309C9.25845 10.66 9.21133 10.5824 9.16823 10.5015C9.15469 10.4759 9.14248 10.4494 9.13046 10.4233C9.09861 10.3559 9.07076 10.2856 9.04597 10.2127C9.03738 10.1875 9.02804 10.1629 9.02041 10.1374C8.99352 10.0456 8.97273 9.95007 8.95747 9.85222C9.96931 10.0645 11.1971 10.1799 12.4868 10.1799C13.7766 10.1799 15.0039 10.0645 16.0158 9.8526C16.0005 9.95102 15.9794 10.0462 15.9527 10.1377C15.9448 10.1633 15.9355 10.1881 15.9269 10.2133C15.9027 10.2859 15.8745 10.3556 15.843 10.4229C15.8304 10.4494 15.8184 10.4763 15.8048 10.5021C15.7594 10.5873 15.7106 10.6689 15.6534 10.7431C15.1951 11.3363 14.9591 12.2643 14.975 13.2082C14.9845 13.7745 15.0841 14.3467 15.2807 14.8554C15.3818 15.1169 15.4703 15.3656 15.5493 15.6069C15.574 15.6818 15.592 15.7515 15.6145 15.8247C15.6643 15.9872 15.7137 16.1489 15.7537 16.3038C15.7757 16.3897 15.7919 16.4713 15.8111 16.5552C15.8422 16.6914 15.8731 16.827 15.897 16.9586C15.913 17.0475 15.9239 17.1337 15.9364 17.2209C15.949 17.3061 15.9593 17.3916 15.9689 17.4755C14.9942 17.695 13.7754 17.8141 12.487 17.8141C11.1986 17.8141 9.9798 17.6947 9.00534 17.4755C9.0145 17.3874 9.02518 17.2989 9.03834 17.2096ZM11.1395 1.14555C11.2814 1.05705 11.7283 0.89817 12.4868 0.89817C13.2454 0.89817 13.6923 1.05705 13.8342 1.14555V2.7462C13.7184 2.81792 13.3955 2.93655 12.8687 2.97794C12.6203 2.99587 12.3525 2.99587 12.1052 2.97794C11.5789 2.93655 11.2554 2.81792 11.1397 2.7462V1.14555H11.1395ZM11.1328 5.25608C11.3592 5.1857 11.5469 5.03559 11.6613 4.83494C11.7962 4.60033 11.8936 4.28524 11.9793 3.87077C11.9911 3.87154 12.0045 3.87115 12.0167 3.87211C12.1742 3.88508 12.3323 3.89175 12.4868 3.89175C12.6629 3.89175 12.832 3.88412 13.022 3.89805C13.0791 4.28391 13.1765 4.59919 13.3114 4.83398C13.4262 5.03559 13.6144 5.18513 13.8412 5.2557C14.3253 5.406 15.8415 6.10676 16.027 8.9283C15.044 9.15604 13.805 9.28078 12.4872 9.28078C11.1702 9.28078 9.93098 9.15604 8.94755 8.92792C9.13218 6.10676 10.6487 5.40657 11.1328 5.25608ZM16.0827 23.1537L16.0801 23.2031C16.0801 23.4335 15.1401 24.1013 12.2623 24.1013C9.59738 24.1013 8.89319 23.5134 8.89319 23.2031L8.89052 23.1537C8.74365 21.8344 8.81728 19.9379 8.92695 18.3764C9.94585 18.5932 11.1854 18.7122 12.4868 18.7122C13.7882 18.7122 15.0278 18.5932 16.0467 18.3764C16.1558 19.9369 16.2296 21.8327 16.0827 23.1537Z" fill="#333333"/>
<path d="M12.4026 2.18718C12.6509 2.18718 12.8517 1.98634 12.8517 1.738C12.8517 1.48966 12.6509 1.28882 12.4026 1.28882H11.9536C11.705 1.28882 11.5044 1.48966 11.5044 1.738C11.5044 1.98634 11.705 2.18718 11.9536 2.18718H12.4026Z" fill="#333333"/>
<path d="M11.7958 22.3009C10.949 22.3341 10.644 22.1361 10.5528 22.0482C10.4738 21.9723 10.4656 21.9013 10.4635 21.9013C10.4635 21.9013 10.4635 21.9017 10.463 21.9027L10.4662 21.4069C10.4662 21.1584 10.2654 20.9578 10.017 20.9578C9.7687 20.9578 9.56805 21.1584 9.56805 21.4069V21.8327C9.55412 22.0446 9.62641 22.3705 9.87818 22.6431C10.2232 23.015 10.8052 23.2027 11.6118 23.2027C11.6827 23.2027 11.756 23.2014 11.8305 23.1983C12.0783 23.1888 12.2711 22.9801 12.2616 22.7322C12.2523 22.4836 12.0245 22.2906 11.7958 22.3009Z" fill="#333333"/>
<path d="M10.0171 20.5086C10.2654 20.5086 10.4663 20.3079 10.4663 20.0596V19.606C10.4663 19.3577 10.2654 19.1569 10.0171 19.1569C9.76877 19.1569 9.56812 19.3577 9.56812 19.606V20.0596C9.56812 20.3079 9.76877 20.5086 10.0171 20.5086Z" fill="#333333"/>
<path d="M10.3866 8.37572C10.4141 8.38068 10.44 8.38297 10.4665 8.38297C10.6803 8.38297 10.8688 8.23019 10.9079 8.01333C11.0872 7.01063 11.9728 6.56011 12.0105 6.54123C12.2324 6.43251 12.3249 6.16491 12.2175 5.94213C12.1097 5.71992 11.8431 5.62646 11.6176 5.73328C11.5636 5.75979 10.2855 6.39265 10.0236 7.85482C9.98015 8.09858 10.1427 8.33224 10.3866 8.37572Z" fill="#333333"/>
</g>
<defs>
<clipPath id="clip0_1_3009">
<rect width="25" height="25" fill="white"/>
</clipPath>
</defs>
</svg>
