<svg width="25" height="25" viewBox="0 0 25 25" fill="none" xmlns="http://www.w3.org/2000/svg">
<g opacity="0.5" clip-path="url(#clip0_1_3094)">
<path d="M14.4531 13.7391C14.1836 13.7391 13.9648 13.9579 13.9648 14.2274C13.9648 14.4969 14.1836 14.7157 14.4531 14.7157C14.7227 14.7157 14.9414 14.4969 14.9414 14.2274C14.9414 13.9579 14.7227 13.7391 14.4531 13.7391Z" fill="#333333"/>
<path d="M18.8096 16.3684C18.3519 15.9109 17.2419 14.6727 16.3662 12.6647C15.715 11.1023 14.2008 10.093 12.5074 10.093C10.8143 10.093 9.30035 11.1024 8.64903 12.6652C7.5504 15.185 6.04951 16.5185 6.03511 16.5311C6.03335 16.5326 6.03164 16.5342 6.02993 16.5357C5.14468 17.3283 4.63696 18.4638 4.63696 19.6509C4.63696 21.1021 5.32803 22.3642 6.52686 23.1638C7.64385 23.909 9.02828 24.1325 10.3249 23.777C10.9747 23.5989 11.7268 23.5048 12.5001 23.5048C13.2863 23.5048 14.0496 23.6021 14.7072 23.786C15.9658 24.1383 17.3472 23.9452 18.4876 23.1917C19.7002 22.3905 20.4032 21.1165 20.4032 19.6509C20.4032 18.3619 19.8228 17.1673 18.8096 16.3684ZM17.9491 22.3769C17.0691 22.9584 15.9834 23.1292 14.9703 22.8456C14.2281 22.638 13.3739 22.5282 12.4999 22.5282C11.6407 22.5282 10.7994 22.6344 10.0666 22.8352C9.04288 23.1159 7.9502 22.9396 7.06866 22.3515C6.14825 21.7375 5.61338 20.7775 5.61338 19.6508C5.61338 18.7419 6.00186 17.8725 6.67925 17.2649C6.78345 17.1736 8.36802 15.7549 9.54576 13.0516C9.54684 13.049 9.54796 13.0465 9.54898 13.0439C10.0474 11.8445 11.2086 11.0695 12.5072 11.0695C13.8063 11.0695 14.9677 11.8443 15.466 13.0435C15.467 13.046 15.4681 13.0485 15.4692 13.0511C16.4256 15.2459 17.6569 16.6009 18.1419 17.0816C18.1558 17.0954 18.1706 17.1084 18.186 17.1204C18.9744 17.733 19.4265 18.6553 19.4265 19.6508C19.4266 20.7869 18.883 21.7599 17.9491 22.3769Z" fill="#333333"/>
<path d="M15.7833 15.6828C15.6361 15.4569 15.3337 15.3928 15.1076 15.5401C14.8816 15.6873 14.8178 15.9898 14.9649 16.2157C15.7079 17.3565 16.4124 18.1163 16.7663 18.4676C16.9577 18.6576 17.2668 18.6566 17.4569 18.4652C17.6469 18.2738 17.6458 17.9646 17.4544 17.7746C17.1281 17.4506 16.477 16.748 15.7833 15.6828Z" fill="#333333"/>
<path d="M10.9175 7.71228C11.3867 6.8922 11.5823 5.80299 11.4542 4.72423C11.2064 2.62398 9.75788 0.864556 8.13956 1.05889C7.4088 1.14537 6.75909 1.62506 6.30982 2.40958C5.84093 3.22901 5.64532 4.31822 5.77315 5.39777C6.17799 8.82771 9.37101 10.4138 10.9175 7.71228ZM7.15738 2.89469C7.42467 2.42774 7.84161 2.02169 8.37907 2.02169C9.34005 2.02169 10.3042 3.31168 10.4845 4.83903C10.5885 5.71466 10.4374 6.58512 10.07 7.22721C8.94469 9.19323 7.00885 7.53571 6.74293 5.28312C6.63917 4.4068 6.79029 3.53624 7.15738 2.89469Z" fill="#333333"/>
<path d="M6.24038 12.9642C6.38174 12.0939 6.20996 11.1315 5.75674 10.2541C5.30332 9.37649 4.61767 8.67937 3.82602 8.29109C2.98525 7.87869 2.12421 7.8574 1.40155 8.23108C0.678895 8.60447 0.198328 9.31897 0.0482303 10.2431C-0.0931274 11.1135 0.0786503 12.0759 0.531874 12.9534C0.985341 13.8307 1.67099 14.5277 2.46264 14.916C3.24829 15.3013 4.1187 15.3733 4.88696 14.9764C5.60972 14.603 6.09038 13.8884 6.24038 12.9642ZM4.43877 14.1088C3.99785 14.3367 3.44882 14.312 2.89272 14.0392C2.28774 13.7425 1.75746 13.1975 1.3995 12.505C1.04174 11.8124 0.90414 11.0648 1.01215 10.3997C1.11142 9.78846 1.40898 9.32649 1.84994 9.09866C1.84999 9.09861 1.85004 9.09861 1.85009 9.09856C2.33769 8.84646 2.90244 8.92576 3.39599 9.16785C4.00092 9.46458 4.5312 10.0096 4.88916 10.7023C5.24692 11.395 5.38452 12.1427 5.27651 12.8077C5.17729 13.4189 4.87973 13.8809 4.43877 14.1088Z" fill="#333333"/>
<path d="M16.162 9.08661C17.6422 9.08661 18.9934 7.4705 19.2381 5.40726C19.4981 3.20931 18.3907 1.05457 16.6317 1.05457C15.1512 1.05457 13.8001 2.67073 13.556 4.73392C13.2957 6.93588 14.4064 9.08661 16.162 9.08661ZM14.5258 4.84862C14.7066 3.32137 15.671 2.03108 16.6317 2.03108C16.677 2.03108 16.7159 2.03328 16.7508 2.03782C17.2715 2.09568 17.6745 2.55071 17.9119 3.01531C18.2349 3.6472 18.3648 4.47718 18.2684 5.29237C18.0807 6.8746 17.032 8.23168 16.0429 8.10331C16.0411 8.10311 16.0393 8.10287 16.0375 8.10263C15.5935 8.05038 15.1724 7.69442 14.8821 7.12606C14.5593 6.49413 14.4295 5.66405 14.5258 4.84862Z" fill="#333333"/>
<path d="M24.9519 10.2451C24.6431 8.3434 22.9241 7.43432 21.1742 8.29301C19.537 9.09614 18.4673 11.165 18.7598 12.9662C19.0723 14.8903 20.8084 15.7662 22.5375 14.9179C24.1752 14.1146 25.2444 12.046 24.9519 10.2451ZM22.1075 14.0411C21.5514 14.3138 21.0024 14.3385 20.5614 14.1107V14.1107C20.1205 13.8829 19.8229 13.4207 19.7237 12.8096C19.5004 11.4348 20.3505 9.78486 21.6042 9.16967C22.7532 8.60605 23.7826 9.13671 23.988 10.4016C24.2109 11.7738 23.3635 13.4251 22.1075 14.0411Z" fill="#333333"/>
</g>
<defs>
<clipPath id="clip0_1_3094">
<rect width="25" height="25" fill="white"/>
</clipPath>
</defs>
</svg>
